<?xml version="1.0" standalone="no"?>
<!DOCTYPE svg PUBLIC "-//W3C//DTD SVG 20010904//EN"
 "http://www.w3.org/TR/2001/REC-SVG-20010904/DTD/svg10.dtd">
<svg version="1.0" xmlns="http://www.w3.org/2000/svg"
 width="300.000000pt" height="300.000000pt" viewBox="0 0 300.000000 300.000000"
 preserveAspectRatio="xMidYMid meet">
<metadata>
Created by potrace 1.11, written by Peter Selinger 2001-2013
</metadata>
<g transform="translate(0.000000,300.000000) scale(0.100000,-0.100000)"
fill="#000000" stroke="none">
<path d="M116 2983 c-6 -14 -5 -15 5 -6 7 7 10 15 7 18 -3 3 -9 -2 -12 -12z"/>
<path d="M149 2963 c-13 -21 -39 -55 -57 -75 -19 -21 -29 -38 -23 -38 7 0 9
-6 5 -12 -4 -7 32 25 80 72 47 46 86 86 86 87 0 2 -10 1 -22 0 -12 -2 -23 -12
-24 -22 -3 -20 -105 -128 -113 -120 -2 3 9 20 26 38 39 42 77 97 70 103 -2 3
-15 -12 -28 -33z"/>
<path d="M225 2948 l-50 -53 53 50 c48 46 57 55 49 55 -1 0 -25 -24 -52 -52z"/>
<path d="M322 2975 c-17 -37 -14 -45 4 -12 9 16 14 31 11 33 -2 2 -9 -7 -15
-21z"/>
<path d="M345 2964 c-29 -69 -75 -212 -75 -230 1 -11 12 7 26 39 13 32 22 63
18 69 -4 6 -3 8 3 5 6 -4 27 17 46 46 20 28 46 64 57 80 16 19 18 27 8 27 -8
0 -32 -27 -53 -60 -21 -33 -40 -60 -41 -60 -4 0 18 48 39 88 15 27 15 32 2 32
-8 0 -21 -16 -30 -36z"/>
<path d="M449 2983 c-13 -16 -12 -17 4 -4 9 7 17 15 17 17 0 8 -8 3 -21 -13z"/>
<path d="M506 2968 c-9 -43 -2 -45 11 -3 6 19 8 35 3 35 -4 0 -10 -14 -14 -32z"/>
<path d="M536 2958 c-32 -79 -32 -155 0 -232 6 -15 4 -17 -7 -11 -8 5 -11 4
-6 0 4 -5 14 -10 21 -11 11 -2 12 4 4 28 -22 63 5 152 68 227 31 36 33 41 16
41 -19 0 -82 -80 -82 -103 0 -6 -3 -8 -6 -4 -3 3 6 28 20 56 23 46 24 51 7 51
-12 0 -24 -14 -35 -42z"/>
<path d="M657 2969 c-59 -48 -97 -123 -97 -190 0 -35 6 -62 16 -75 15 -18 15
-18 5 3 -15 30 -14 107 3 147 7 18 28 49 45 68 25 28 38 36 63 35 28 -2 32 -6
43 -50 16 -64 42 -89 91 -89 46 0 68 23 78 81 6 40 11 45 51 42 20 -2 20 -1 1
14 -43 33 -76 8 -76 -58 0 -40 -25 -67 -63 -67 -44 0 -77 45 -68 94 1 4 -1 17
-5 28 -5 15 -13 19 -35 16 -38 -6 -37 0 4 17 30 13 30 14 7 15 -14 0 -42 -14
-63 -31z"/>
<path d="M767 2988 c4 -7 6 -36 4 -65 -2 -44 0 -53 19 -63 49 -26 80 4 80 76
0 48 21 60 67 37 21 -10 37 -24 36 -30 -4 -16 90 -87 147 -112 39 -17 104 -27
135 -21 6 1 24 1 41 0 73 -3 180 60 241 145 l21 30 -1 -60 c0 -33 -2 -49 -5
-35 -7 41 -19 39 -70 -10 -56 -54 -116 -78 -213 -87 -84 -7 -149 8 -223 53
-31 19 -63 34 -71 34 -8 0 -24 -18 -35 -40 -24 -48 -45 -60 -102 -60 -54 0
-100 27 -133 80 -14 22 -30 40 -36 40 -12 0 -59 -49 -59 -62 0 -5 10 3 23 17
26 30 47 27 68 -11 43 -82 186 -105 237 -39 11 13 22 22 24 19 3 -3 8 2 12 11
4 11 2 14 -6 9 -7 -4 -8 -3 -4 4 7 13 15 10 126 -41 97 -45 218 -43 340 6 55
23 59 23 49 5 -15 -27 -74 -67 -167 -112 -45 -22 -78 -44 -75 -49 4 -6 1 -7
-6 -3 -17 11 -53 -24 -46 -43 3 -8 3 -12 -1 -8 -4 4 -13 -1 -20 -11 -12 -15
-13 -14 -14 11 0 39 33 66 128 105 45 18 92 42 104 53 l23 20 -35 -6 c-86 -15
-177 -17 -255 -5 -81 13 -84 12 -116 -11 -24 -17 -52 -25 -99 -28 l-65 -6 55
-5 c30 -3 75 -1 100 3 69 13 250 20 250 10 0 -5 -24 -20 -52 -34 l-53 -24 -5
-55 -5 -55 -12 41 c-7 23 -13 50 -13 62 0 27 -9 29 -117 31 -62 1 -94 -2 -99
-10 -5 -9 0 -10 20 -5 16 4 25 3 22 -3 -3 -5 10 -12 30 -16 20 -3 46 -12 57
-18 31 -18 87 -78 87 -93 0 -21 -28 -17 -40 5 -14 27 -105 70 -165 77 l-50 7
37 -39 c40 -43 100 -135 93 -142 -3 -3 -32 24 -66 59 l-61 64 51 -59 c28 -33
51 -65 51 -71 0 -7 -11 -17 -25 -23 -21 -10 -32 -6 -79 22 -31 18 -69 39 -86
46 -16 7 -27 16 -24 21 3 5 -1 6 -9 3 -19 -7 -130 43 -122 56 4 6 -1 7 -11 3
-11 -4 -15 -3 -10 5 3 6 1 14 -5 18 -8 5 -9 3 -4 -6 5 -8 3 -11 -6 -8 -8 3
-14 10 -14 15 0 6 -4 15 -9 20 -5 5 -6 3 -2 -4 4 -7 4 -13 -1 -13 -11 1 -63
47 -63 56 0 4 12 -3 28 -17 l27 -24 -24 27 c-13 15 -27 25 -32 23 -4 -3 -10
-1 -14 5 -4 6 -10 8 -15 5 -4 -3 -13 2 -20 10 -15 18 -40 20 -40 3 0 -6 -2 -9
-5 -6 -3 3 -3 13 1 22 6 15 8 15 30 1 27 -17 31 -10 9 19 -20 26 -42 14 -54
-31 -21 -73 -4 -158 31 -158 7 0 13 -7 13 -15 0 -8 9 -15 20 -15 11 -1 19 -6
18 -12 -1 -6 36 -28 82 -48 46 -21 82 -42 79 -46 -3 -5 3 -6 12 -2 12 4 15 3
10 -5 -5 -8 -1 -10 10 -5 13 5 15 3 9 -7 -5 -8 -4 -11 3 -7 15 10 43 -3 35
-16 -3 -6 -1 -7 6 -3 7 5 27 -4 48 -20 54 -41 22 -50 -52 -14 -59 28 -188 72
-254 85 -25 5 -30 10 -20 17 10 7 8 8 -7 3 -11 -3 -52 -1 -90 4 -73 10 -141 2
-137 -17 2 -6 -4 -9 -11 -6 -8 3 -19 -4 -26 -16 -6 -11 -16 -17 -22 -14 -6 4
-8 3 -5 -3 4 -6 0 -28 -9 -49 -18 -42 -28 -33 -22 21 2 18 0 31 -5 28 -5 -3
-6 3 -3 14 8 24 -24 55 -59 59 -23 2 -25 -1 -25 -40 0 -24 7 -60 15 -79 8 -20
15 -49 14 -64 -1 -22 -3 -18 -11 15 -5 24 -12 42 -14 39 -3 -2 0 -24 5 -48 6
-24 11 -76 11 -115 0 -75 17 -183 31 -199 8 -8 15 56 11 113 0 13 3 20 10 16
6 -4 8 1 4 14 -8 25 31 106 74 156 17 19 52 45 77 57 86 42 239 24 386 -43 58
-27 66 -33 54 -45 -12 -13 -22 -12 -67 1 -63 19 -91 20 -142 6 -122 -34 -175
-184 -110 -313 20 -39 26 -61 19 -72 -8 -15 -10 -15 -27 0 -11 10 -16 24 -13
33 5 11 3 13 -7 7 -9 -5 -11 -4 -6 3 4 7 2 12 -4 12 -6 0 -8 5 -5 10 3 6 1 10
-5 10 -6 0 -9 4 -6 8 5 8 -7 60 -22 102 -8 23 -8 70 1 70 4 0 7 8 7 18 0 10 9
42 19 72 11 30 17 58 15 62 -10 15 -69 8 -103 -13 -18 -11 -31 -23 -27 -26 8
-9 -14 -34 -25 -28 -13 9 -57 -76 -75 -145 -13 -53 -14 -73 -5 -115 15 -68 59
-142 130 -218 83 -88 144 -117 256 -119 63 -2 85 -6 85 -15 0 -22 -24 -25 -91
-13 -95 16 -174 59 -252 136 -126 124 -182 231 -197 374 -8 75 -8 75 -8 -35 0
-79 5 -118 16 -140 27 -54 98 -138 184 -221 94 -90 173 -134 273 -154 l60 -12
0 -102 0 -102 -85 4 c-134 5 -150 12 -253 110 -51 48 -109 100 -129 116 -21
15 -35 33 -31 39 4 6 0 8 -9 5 -9 -4 -15 0 -15 8 0 8 2 14 5 14 3 0 57 -33
121 -74 140 -90 178 -102 272 -86 98 17 105 33 27 59 -80 27 -150 67 -211 122
-49 42 -162 167 -204 224 -12 17 -23 24 -23 18 0 -15 143 -187 205 -248 23
-22 62 -58 88 -79 26 -21 47 -42 47 -47 0 -28 -135 17 -210 71 -15 11 -30 17
-34 13 -3 -3 -6 -1 -6 5 0 14 -55 44 -64 35 -3 -4 -6 -1 -6 5 0 7 -4 12 -9 12
-17 0 -6 -65 14 -82 19 -17 9 -26 -11 -10 -5 4 8 -8 28 -26 21 -19 35 -38 32
-44 -4 -5 -17 0 -32 14 -15 13 -8 2 15 -24 28 -30 48 -66 58 -102 22 -76 9
-114 -61 -180 -80 -75 -65 -85 21 -15 82 66 95 83 95 127 0 38 -20 93 -31 86
-5 -3 -6 3 -2 12 5 13 3 15 -7 9 -8 -5 -11 -4 -7 2 4 6 0 14 -9 17 -8 3 -12
11 -8 17 5 8 3 9 -6 4 -9 -6 -11 -4 -5 5 5 8 4 11 -2 7 -5 -3 -10 1 -10 9 0
10 9 6 29 -13 15 -15 28 -23 28 -17 0 5 -23 30 -52 56 -29 26 -48 48 -43 48
20 0 135 -125 192 -210 50 -74 62 -85 90 -88 18 -2 41 1 51 7 10 5 29 7 41 4
21 -5 22 -10 16 -47 -3 -23 -9 -117 -11 -211 -3 -93 -9 -174 -14 -180 -4 -5
-13 -27 -19 -47 -10 -30 -15 -35 -26 -25 -7 6 -11 15 -8 20 2 4 2 7 0 7 -3 0
-13 -12 -22 -27 -10 -16 -12 -22 -4 -15 17 16 26 15 33 -4 4 -10 2 -13 -6 -8
-8 5 -9 1 -5 -12 7 -18 6 -18 -8 1 -9 11 -17 20 -19 20 -7 0 -121 -140 -119
-147 2 -4 -16 -23 -39 -42 -59 -51 -108 -47 -108 9 0 8 7 11 20 8 11 -3 27 0
35 7 10 8 15 9 15 2 0 -15 -38 -35 -50 -27 -6 3 -10 1 -10 -4 0 -21 56 -11 80
14 12 13 26 23 30 22 5 -1 9 3 9 8 1 6 15 24 30 40 53 57 111 137 105 146 -3
5 0 9 6 9 6 0 8 5 4 12 -5 7 -3 8 6 3 10 -6 12 -4 7 8 -3 10 -2 17 3 17 5 0 7
7 4 15 -4 8 -2 15 3 15 12 0 7 114 -7 186 -14 66 -67 148 -100 153 -31 4 -126
-17 -160 -35 -24 -13 -23 -13 20 -14 68 0 109 -27 144 -94 42 -80 47 -162 15
-251 -13 -36 -29 -71 -35 -76 -7 -6 -4 8 7 31 50 104 48 220 -6 302 -33 49
-68 71 -124 78 -29 3 -45 10 -43 18 3 18 -12 15 -31 -6 -21 -23 -12 -34 20
-26 106 27 212 -95 201 -230 -7 -88 -100 -260 -153 -284 -26 -12 -57 4 -76 41
l-12 22 25 -22 c13 -13 34 -23 45 -23 56 0 155 169 160 274 3 46 -1 71 -17
101 -11 22 -17 31 -14 20 12 -33 17 -95 8 -95 -4 0 -17 9 -29 20 -31 29 -77
36 -101 13 -10 -10 -15 -15 -10 -10 19 14 73 7 89 -11 35 -39 4 -112 -47 -112
-36 0 -70 43 -62 80 4 21 2 29 -5 24 -7 -4 -7 1 1 15 15 30 57 44 107 37 37
-5 43 -3 43 12 0 10 -8 29 -17 42 -16 24 -16 24 0 11 24 -19 21 2 -2 23 -11
10 -25 15 -32 10 -8 -4 -10 -3 -5 4 4 8 -3 16 -20 22 -29 12 -125 9 -117 -2 2
-5 -1 -8 -6 -8 -6 0 -11 -4 -11 -9 0 -6 23 -7 53 -4 46 5 57 2 82 -19 32 -28
28 -44 -15 -53 -36 -8 -86 -63 -95 -104 -4 -21 0 -44 16 -78 24 -52 25 -55 28
-93 2 -23 3 -24 12 -5 l9 20 -3 -20 c-3 -24 -32 -27 -64 -7 l-21 13 -1 -141
c-1 -108 1 -140 10 -134 9 5 10 2 5 -12 -18 -42 -18 -52 1 -57 16 -4 16 -5 1
-6 -13 -1 -18 -10 -18 -31 0 -68 71 -17 224 160 21 25 33 36 28 25 -16 -31
-133 -158 -178 -193 -23 -18 -48 -32 -57 -32 -10 0 -17 -7 -17 -15 0 -23 31
-18 97 15 60 30 149 113 139 129 -9 13 61 74 75 65 8 -5 11 -2 6 8 -4 12 -1
14 14 11 23 -6 21 -11 -86 -127 -49 -53 -112 -108 -162 -142 -46 -30 -83 -59
-83 -64 0 -14 12 -12 54 5 49 21 45 12 -9 -19 -42 -25 -45 -29 -45 -70 0 -42
1 -43 28 -39 l27 4 -27 -18 c-16 -10 -28 -23 -28 -30 0 -18 30 -16 52 4 18 16
18 16 12 0 -6 -18 10 -22 40 -11 21 8 20 22 -1 27 -10 2 -8 3 5 2 32 -3 26 35
-8 52 -15 8 -19 13 -9 13 33 0 52 -25 46 -62 l-5 -35 59 0 c33 0 57 2 54 5 -2
3 3 11 13 19 9 8 11 11 3 7 -10 -5 -12 -3 -7 5 6 9 11 9 21 1 11 -9 20 -8 37
4 43 30 152 14 187 -27 20 -25 128 -24 134 1 4 16 5 16 6 0 1 -19 26 -25 35
-9 6 8 66 7 144 -4 36 -5 42 -4 42 12 0 15 -2 16 -11 3 -9 -13 -10 -13 -7 0 2
8 -8 31 -21 50 -16 23 -8 17 23 -17 l47 -52 77 1 76 1 -58 29 c-85 43 -61 46
32 4 74 -33 132 -46 132 -29 0 4 -42 48 -94 98 -85 81 -136 152 -136 187 0 7
9 -5 20 -27 27 -53 66 -94 177 -188 l93 -77 87 1 c86 0 87 1 48 13 -23 7 -50
18 -60 25 -20 12 -20 12 0 6 11 -4 38 -9 61 -12 73 -9 100 45 111 217 3 55 10
100 15 100 19 0 1 -250 -23 -303 -6 -14 -21 -30 -33 -35 -20 -10 -20 -11 6
-11 15 -1 32 7 38 16 11 17 11 17 6 1 -4 -14 0 -18 19 -18 13 0 27 5 30 10 3
6 12 10 18 10 7 0 6 -4 -3 -10 -11 -7 -7 -10 18 -10 19 0 32 5 32 13 0 13 -46
278 -55 315 -3 12 -1 22 4 22 5 0 14 -35 20 -77 7 -43 20 -121 30 -173 l17
-95 44 -2 45 -2 -2 87 -2 87 14 -45 c8 -25 19 -64 25 -87 12 -47 34 -57 44
-21 9 34 7 45 -5 28 -9 -12 -10 -12 -5 4 4 11 1 53 -6 94 -9 54 -14 68 -18 51
-4 -13 -6 11 -6 53 1 115 24 95 27 -22 2 -54 4 -49 15 37 4 30 10 43 21 43 10
0 13 -5 8 -17 -12 -31 -18 -158 -11 -226 l7 -66 65 1 c35 1 64 2 64 2 0 1 -7
24 -15 51 -36 116 -40 260 -8 253 11 -2 15 -28 17 -118 1 -63 7 -126 13 -140
9 -20 10 -15 6 31 -11 116 30 169 131 169 86 0 135 -16 178 -60 37 -37 38 -39
38 -114 l0 -76 34 0 c25 0 43 8 64 30 19 19 41 30 57 30 25 0 27 -2 21 -31
l-6 -32 47 7 c62 9 71 9 117 0 37 -7 38 -6 26 15 -11 21 -10 22 9 12 11 -6 23
-16 26 -21 3 -6 13 -10 22 -10 23 0 -1 27 -56 62 -25 15 -40 28 -34 28 6 0 39
-21 72 -46 34 -26 64 -44 67 -41 9 8 -97 84 -149 107 -26 12 -69 24 -97 27
-27 3 -47 9 -45 13 7 12 106 -9 163 -35 71 -32 66 -22 -8 15 -122 61 -204 69
-230 20 -11 -20 3 -30 15 -10 3 6 16 9 28 9 20 -1 21 -2 2 -6 -11 -3 -26 -10
-33 -16 -21 -17 -35 5 -23 36 14 37 7 50 -42 75 l-42 22 37 -6 c60 -10 81 1
133 68 l49 63 13 -44 c17 -59 39 -80 134 -131 43 -24 98 -59 121 -79 l42 -36
-38 50 c-20 28 -62 69 -91 92 -50 40 -75 77 -60 91 3 3 14 1 23 -6 9 -7 49
-28 87 -46 73 -35 91 -52 140 -124 36 -54 50 -64 29 -20 -23 49 -7 83 51 108
51 22 56 29 20 26 -14 0 -25 -5 -25 -9 0 -5 -6 -7 -12 -4 -7 2 -19 -3 -26 -12
-10 -12 -12 -13 -6 -1 7 13 5 13 -9 1 -9 -7 -14 -18 -10 -25 4 -8 3 -8 -6 0
-22 20 0 44 56 60 59 17 69 29 12 15 -19 -5 -46 -12 -61 -15 -23 -5 -28 -12
-29 -39 l-1 -32 -8 35 c-10 43 -6 50 31 50 39 0 119 20 119 30 0 12 -33 18
-76 15 -22 -2 -33 -1 -26 2 8 3 -6 17 -33 34 -25 16 -48 29 -50 29 -3 0 -8
-18 -11 -39 -7 -45 -22 -54 -71 -45 -40 8 -73 46 -73 86 0 25 -3 28 -21 23
-16 -6 -20 -4 -14 6 7 12 5 12 -6 1 -8 -7 -14 -20 -14 -30 0 -9 -5 -16 -11
-15 -6 1 -10 -18 -9 -48 1 -39 7 -55 31 -81 l29 -32 -35 25 c-47 34 -74 90
-66 135 4 19 11 32 16 29 6 -4 7 1 3 11 -4 12 -3 15 5 10 8 -5 10 -1 5 10 -4
11 -2 15 4 11 6 -4 23 9 37 28 26 34 26 34 4 26 -13 -4 -23 -16 -23 -26 0 -10
-7 -19 -17 -20 -9 -2 -23 -7 -31 -11 -25 -15 -107 -94 -107 -103 0 -12 -71
-71 -85 -71 -5 0 -4 4 3 9 8 4 14 12 15 17 1 5 6 8 10 6 5 -1 6 2 2 8 -3 5 1
13 9 16 9 3 14 10 11 14 -3 4 2 11 11 14 9 4 14 9 11 12 -6 7 37 54 50 54 5 0
18 9 28 20 10 12 25 18 32 15 8 -2 12 -1 8 4 -7 13 36 45 104 78 31 14 64 33
74 41 9 9 20 13 22 10 13 -12 -19 -56 -58 -80 -24 -15 -54 -39 -67 -54 l-25
-27 45 29 c25 16 62 37 82 46 22 10 44 31 54 50 23 45 22 45 40 20 12 -17 24
-22 57 -21 23 1 33 4 22 6 -25 6 -45 22 -45 35 0 6 7 8 15 4 9 -3 36 -3 60 1
36 4 45 10 45 25 0 12 -5 18 -12 15 -7 -2 -12 -9 -11 -15 1 -5 -11 -12 -27
-14 -17 -3 -30 -1 -30 4 0 5 -4 7 -9 4 -4 -3 -13 5 -19 19 -8 18 -8 25 1 28 7
2 9 8 5 12 -4 4 -17 -8 -28 -26 -21 -33 -22 -34 -17 -6 3 21 1 25 -8 17 -9 -7
-16 -6 -25 5 -7 8 -16 12 -22 9 -5 -3 -6 5 -2 20 5 22 2 27 -21 36 -30 11 -47
6 -39 -14 3 -7 -6 -27 -20 -43 -14 -17 -24 -32 -22 -34 3 -2 -7 -5 -20 -5 -24
-2 -25 -1 -8 23 9 14 12 23 6 19 -5 -3 -13 1 -16 10 -11 28 4 31 25 5 18 -22
19 -22 19 -3 0 11 -12 30 -27 41 -25 18 -26 20 -8 21 19 1 19 1 2 11 -9 6 -15
14 -12 20 4 5 1 9 -6 9 -7 0 -10 2 -8 5 3 2 18 0 35 -4 28 -9 28 -9 4 -11 -25
-2 45 -21 120 -33 34 -6 34 -6 -9 14 -24 11 -53 17 -65 14 -12 -3 -15 -2 -8 1
6 3 10 9 7 13 -2 5 9 8 25 7 17 -1 30 -4 30 -8 0 -5 15 -8 33 -7 25 0 28 2 13
8 -18 7 -18 8 -3 14 21 8 22 27 1 27 -8 0 -12 -5 -9 -10 10 -15 -18 -12 -43 6
-27 19 -52 8 -25 -11 13 -10 -1 -8 -46 4 -52 14 -69 24 -88 52 -30 43 -29 53
6 78 34 24 93 28 111 6 17 -21 27 -19 34 7 5 19 8 21 16 8 8 -13 11 -13 19 -1
5 8 14 10 21 6 9 -5 11 -4 6 3 -13 22 -66 14 -77 -10 -9 -22 -9 -22 -6 4 2 15
1 27 -2 26 -3 0 -13 0 -21 1 -13 1 -13 2 0 11 13 8 12 10 -3 10 -26 0 -42 48
-23 69 20 22 7 40 -30 44 -16 2 -35 7 -42 10 -6 4 -27 1 -47 -7 -28 -12 -35
-20 -35 -43 -1 -25 -2 -26 -11 -10 -6 11 -12 24 -13 30 -4 27 -20 37 -59 38
-32 2 -35 3 -12 6 62 7 75 14 91 44 15 31 16 31 30 10 8 -12 22 -21 31 -21 13
0 13 3 3 15 -16 19 -9 19 35 1 32 -14 36 -14 45 4 9 17 6 21 -15 26 -17 4 -24
11 -21 20 4 9 -2 14 -15 14 -11 0 -18 -4 -15 -8 2 -4 -4 -8 -14 -8 -14 0 -16
3 -8 13 15 18 -3 16 -32 -4 -25 -16 -25 -16 -7 3 29 34 19 36 -30 8 l-48 -28
24 27 c13 14 26 25 30 24 10 -3 61 35 61 45 0 5 -7 16 -15 24 -13 14 -15 14
-15 0 0 -8 -8 -20 -17 -25 -17 -10 -17 -10 1 -11 15 0 16 -3 6 -15 -11 -13
-14 -13 -27 2 -8 10 -11 12 -7 4 5 -11 3 -13 -9 -8 -10 3 -17 2 -17 -3 0 -5
-7 -7 -15 -4 -8 4 -15 1 -15 -5 0 -6 -4 -11 -10 -11 -17 0 -11 25 10 38 27 17
25 33 -10 72 -17 18 -30 38 -30 42 0 15 70 -44 85 -71 l14 -26 1 26 c0 20 -20
48 -70 104 -39 42 -70 81 -70 87 0 7 135 -108 190 -162 3 -3 18 -16 34 -30
l29 -25 -25 35 c-43 59 -43 67 0 23 40 -40 76 -51 78 -22 1 23 -8 32 -18 18
-6 -10 -7 -7 -3 10 5 15 3 21 -3 17 -6 -4 -8 2 -4 16 4 16 2 19 -8 13 -9 -6
-11 -4 -5 4 4 8 18 10 34 7 25 -5 25 -5 -4 10 l-30 15 39 -6 38 -6 -41 39
c-36 34 -41 44 -35 67 5 22 1 32 -25 56 -50 45 -111 36 -111 -17 0 -13 -4 -25
-8 -28 -4 -2 -6 11 -4 30 7 57 65 81 127 52 26 -11 29 -20 39 -92 3 -22 11
-44 17 -50 9 -8 10 -8 5 2 -11 18 3 51 26 63 19 10 20 9 14 -16 -9 -33 16 -65
51 -65 26 0 32 -19 6 -21 -12 -1 -9 -4 7 -8 32 -10 36 -6 50 49 13 49 14 66 5
125 l-6 40 25 -40 c14 -22 26 -52 26 -67 0 -16 4 -28 10 -28 5 0 7 6 4 14 -9
24 17 29 40 7 31 -29 38 -26 18 9 -14 24 -22 28 -42 23 -24 -5 -24 -5 -5 10
11 8 23 13 27 11 5 -3 8 3 8 12 0 14 -3 15 -12 6 -34 -34 -82 13 -59 57 10 17
9 21 -4 21 -9 0 -13 -4 -10 -10 3 -5 0 -7 -8 -4 -34 13 -46 -53 -19 -103 25
-45 11 -34 -25 20 -40 59 -53 69 -53 40 0 -15 -2 -16 -10 -3 -5 8 -10 12 -10
7 0 -4 20 -27 45 -50 30 -29 45 -52 45 -68 -1 -22 -2 -21 -15 9 -8 18 -21 35
-30 38 -8 3 -12 11 -8 17 4 6 0 8 -11 4 -9 -4 -15 -3 -12 2 8 12 -20 22 -39
15 -9 -4 -15 0 -15 9 0 9 -8 21 -17 27 -15 9 -15 10 5 5 13 -4 29 -1 37 5 8 6
18 9 23 7 4 -3 14 -2 22 4 12 7 12 9 1 9 -11 0 -11 3 -1 15 19 23 27 18 23
-12 -3 -16 3 -37 12 -48 15 -19 15 -19 4 7 -10 23 -8 32 9 62 12 20 19 36 16
36 -8 0 -67 -31 -94 -51 -27 -19 -104 -34 -95 -18 4 5 17 9 31 9 17 0 43 17
77 51 30 29 43 48 32 44 -76 -26 -127 -29 -193 -12 -98 25 -183 70 -210 111
-14 20 -21 40 -16 47 4 7 3 9 -3 6 -5 -3 -17 7 -26 23 -10 16 -27 32 -39 35
-16 6 -18 9 -7 17 10 6 6 7 -11 3 -14 -4 -38 -16 -54 -27 -16 -11 -25 -15 -21
-8 5 8 4 11 -2 7 -7 -4 -8 -22 -3 -48 6 -30 21 -55 58 -93 43 -44 72 -84 72
-99 0 -9 -74 68 -75 77 0 5 -6 11 -14 14 -9 3 -11 0 -6 -8 5 -7 -13 2 -39 19
-52 36 -100 96 -115 144 -11 37 -22 109 -14 88 4 -9 10 -2 20 19 16 39 6 50
-35 41 l-27 -6 28 -3 c15 -2 27 -8 27 -13 0 -9 -17 -7 -57 8 -7 3 -13 0 -13
-7 0 -6 -4 -9 -9 -6 -5 4 -21 -8 -36 -26 -23 -27 -26 -39 -22 -78 2 -25 7 -54
11 -65 3 -11 0 -6 -8 10 -8 17 -15 50 -16 73 0 76 62 121 188 137 28 3 42 1
42 -7 0 -6 -3 -8 -7 -5 -9 9 -50 -49 -64 -90 -9 -28 -8 -43 6 -78 17 -45 76
-114 116 -136 22 -11 22 -10 -4 20 -50 60 -48 118 6 151 69 43 127 17 168 -75
27 -60 64 -102 113 -127 l41 -20 -39 34 c-36 32 -40 39 -43 94 -5 66 18 126
50 132 13 3 17 -3 17 -28 0 -38 24 -97 51 -126 11 -12 38 -29 59 -39 38 -17
42 -17 130 5 121 30 138 16 43 -36 -91 -50 -103 -57 -78 -49 76 27 115 35 167
35 37 0 57 -4 53 -10 -3 -5 -18 -10 -33 -10 -15 -1 -40 -6 -55 -13 -26 -11
-21 -12 53 -13 44 -1 83 -4 86 -7 15 -15 -13 -27 -64 -28 l-57 -1 55 -10 c30
-5 65 -6 78 -3 21 5 23 11 21 65 l-2 60 -41 0 c-31 0 -37 3 -28 12 23 23 12
53 -40 107 -52 54 -52 54 -8 17 61 -52 90 -87 90 -111 0 -14 3 -16 11 -8 20
20 1 60 -61 134 -33 40 -58 74 -55 77 7 8 85 -69 80 -78 -3 -4 3 -14 13 -21
15 -13 16 -12 3 4 -16 20 1 23 18 3 9 -11 9 -15 -1 -19 -10 -3 -9 -9 5 -23 17
-18 17 -17 15 10 -2 22 -30 56 -115 140 -101 101 -119 114 -192 143 -77 32
-124 35 -101 8 5 -6 6 -16 2 -20 -4 -5 1 -5 11 -2 10 4 16 3 13 -2 -8 -12 83
-43 98 -34 6 3 8 3 4 -2 -4 -4 15 -24 41 -44 42 -32 77 -68 130 -136 9 -10
-20 11 -63 48 -44 37 -102 76 -130 86 -28 11 -45 20 -38 20 7 1 29 -6 49 -14
20 -8 38 -13 41 -11 6 7 -65 41 -127 61 -77 25 -101 52 -101 113 0 27 3 51 6
54 3 3 27 -16 53 -42 31 -31 67 -55 105 -69 86 -32 117 -49 160 -90 l39 -36
-37 70 c-26 49 -51 80 -82 103 -25 19 -43 36 -41 38 6 6 130 -14 175 -28 30
-9 32 -13 32 -54 0 -45 16 -94 41 -127 13 -15 14 -13 16 25 2 24 5 77 9 119
l5 76 -44 17 c-24 9 -67 37 -96 61 -48 41 -57 45 -107 45 -30 0 -57 1 -61 2
-5 1 -18 -14 -31 -32 -17 -26 -22 -45 -20 -81 2 -26 5 -47 8 -46 3 1 23 -11
45 -26 22 -15 35 -27 30 -27 -6 0 -22 8 -35 17 -14 10 -31 18 -38 20 -44 6
-86 80 -79 140 5 45 -2 53 -23 28 -7 -8 -17 -12 -23 -8 -6 4 -7 1 -2 -7 5 -8
2 -17 -6 -24 -8 -6 -15 -18 -16 -26 -1 -8 -7 -37 -14 -63 -13 -57 -7 -89 24
-118 l22 -21 -32 16 c-18 9 -36 24 -41 34 -14 26 -23 100 -13 106 4 3 6 16 4
29 -3 13 0 40 5 61 9 30 8 36 -4 36 -9 0 -12 5 -9 10 4 6 11 7 17 4 6 -4 8 -2
5 3 -4 6 1 17 10 24 15 13 16 11 10 -16 -5 -25 -3 -23 12 10 11 25 14 41 8 44
-14 5 -75 -67 -73 -88 0 -9 -5 -15 -12 -13 -8 1 -11 -2 -8 -7 7 -11 -58 -96
-102 -133 -45 -37 -124 -65 -259 -89 -121 -21 -186 -46 -197 -74 -3 -9 -6 -31
-7 -48 l-1 -32 -9 30 c-42 126 -40 125 -167 151 -42 8 -97 24 -121 35 -55 24
-66 17 -14 -10 21 -11 34 -20 28 -21 -5 0 -24 9 -42 19 -27 17 -33 18 -43 6
-9 -11 0 -20 47 -44 32 -17 54 -30 50 -31 -4 0 -30 11 -57 25 -57 29 -73 31
-90 10 -17 -20 11 -50 100 -110 36 -23 83 -63 105 -86 l40 -44 -50 46 c-28 26
-69 59 -93 73 -23 15 -60 43 -82 62 -22 20 -44 33 -50 29 -16 -10 44 -74 103
-112 28 -18 47 -33 41 -33 -12 0 -143 76 -165 96 -13 12 -18 11 -37 -2 -12 -8
-20 -19 -17 -24 12 -19 116 -80 127 -74 7 5 8 3 3 -6 -6 -10 -4 -12 9 -7 9 4
15 3 12 -1 -3 -5 -25 -8 -50 -7 -47 1 -91 28 -82 52 3 7 -4 18 -15 23 -40 22
-42 3 -4 -41 l39 -44 -42 39 c-36 34 -43 38 -59 26 -27 -19 117 117 234 222
56 50 113 107 127 127 13 20 38 51 55 69 17 18 42 48 57 67 16 21 31 32 40 28
8 -3 32 -31 54 -63 73 -107 151 -154 260 -154 90 0 137 27 220 129 94 115 153
174 157 155 4 -16 -107 -271 -128 -296 -6 -8 -9 -14 -5 -14 3 0 32 39 63 87
65 98 158 202 209 234 19 12 37 19 39 17 3 -2 -18 -35 -46 -74 -52 -70 -101
-159 -113 -204 -4 -14 7 0 24 30 34 60 103 136 163 177 20 14 46 41 58 59 28
45 39 43 39 -9 0 -49 -7 -60 -89 -144 -34 -34 -61 -67 -61 -73 0 -6 14 5 31
25 17 19 61 52 98 72 36 20 69 42 73 47 4 6 8 36 8 67 0 31 3 58 6 61 3 4 22
-5 42 -18 44 -30 115 -31 120 -1 3 12 -3 17 -21 17 -23 0 -60 29 -41 31 5 1
20 2 34 2 23 2 25 7 28 50 2 30 -2 55 -10 64 -10 13 -10 17 0 20 15 6 16 43 1
43 -7 0 -31 -20 -55 -44 -50 -50 -54 -50 -19 2 27 39 31 52 15 52 -20 0 -48
-84 -46 -142 0 -31 -3 -54 -7 -51 -5 3 -8 22 -6 42 1 20 1 50 0 66 l-1 30 -21
-25 c-19 -23 -19 -23 -9 -2 6 12 8 28 4 34 -4 6 -3 8 3 5 6 -4 19 6 28 21 l18
27 -22 -19 c-18 -17 -21 -17 -15 -3 3 10 1 17 -5 17 -6 0 -17 -21 -25 -47 -8
-27 -15 -46 -16 -43 -8 28 -6 46 7 66 9 14 11 24 5 24 -6 0 -22 -19 -37 -42
l-25 -43 6 43 7 42 -41 0 c-37 0 -41 -3 -45 -27 l-4 -28 -2 28 c-1 21 -6 27
-23 27 -19 0 -20 -2 -6 -12 15 -12 32 -72 18 -63 -3 2 -11 -15 -17 -38 -7 -23
-19 -51 -28 -62 -16 -20 -16 -20 -6 2 6 12 11 36 11 53 0 42 -33 53 -135 47
-58 -4 -69 -3 -40 3 50 11 156 12 171 2 6 -4 14 -14 17 -22 3 -9 6 -4 6 12 1
19 -7 33 -26 45 -22 15 -48 17 -167 16 -91 -1 -132 2 -116 7 31 11 -387 5
-449 -7 -32 -6 -45 -13 -47 -27 -2 -18 2 -18 74 -11 103 11 220 10 317 -2 l80
-11 -90 3 c-49 1 -98 6 -108 10 -10 4 -41 5 -70 1 -168 -20 -201 -19 -229 4
-16 12 -28 28 -28 36 0 9 -11 14 -31 14 -26 0 -31 -3 -26 -20 3 -11 1 -18 -4
-14 -5 3 -9 12 -9 20 0 10 -9 14 -29 12 -16 -1 -27 -6 -25 -10 3 -5 9 -6 14
-3 5 3 11 -3 14 -13 10 -30 52 -82 61 -74 5 4 5 2 1 -5 -8 -14 36 -29 53 -18
6 3 11 1 11 -4 0 -6 -13 -11 -30 -11 -34 0 -131 77 -124 98 2 7 -1 10 -6 7 -6
-3 -10 3 -10 14 0 12 -7 21 -15 21 -8 0 -15 -9 -15 -19 0 -11 -4 -22 -9 -26
-6 -3 -8 6 -5 20 4 24 2 25 -41 25 -39 0 -46 -3 -60 -30 -9 -16 -18 -30 -21
-30 -2 0 0 9 6 19 13 26 13 41 -2 41 -6 0 -9 -3 -5 -6 7 -7 -18 -60 -33 -69
-5 -3 -3 7 5 22 17 33 19 53 5 53 -5 0 -10 -6 -10 -12 0 -9 -2 -10 -8 -2 -10
17 -332 17 -332 1 0 -7 10 -30 23 -51 42 -74 135 -105 221 -74 53 19 78 16 30
-3 -43 -18 -53 -20 -122 -25 -55 -5 -72 -1 -125 24 -37 17 -84 51 -118 85
l-57 57 -102 0 c-78 0 -99 -3 -93 -12z m415 -67 c7 -9 3 -6 -9 7 -13 13 -23
33 -22 45 1 18 2 17 9 -7 5 -15 15 -36 22 -45z m238 55 c0 -22 -37 -62 -70
-76 -63 -26 -160 5 -160 52 0 16 4 18 23 12 12 -4 50 -8 84 -9 70 -1 82 -7 62
-32 -13 -17 -13 -17 11 -2 31 20 41 55 14 45 -18 -6 -17 -5 0 9 25 19 36 19
36 1z m595 4 c-3 -5 -13 -10 -21 -10 -8 0 -12 5 -9 10 3 6 13 10 21 10 8 0 12
-4 9 -10z m724 -57 c-1 -21 -3 -30 -6 -20 -5 20 -14 22 -32 5 -8 -7 -5 2 5 20
24 42 34 41 33 -5z m-1079 6 c0 -5 -4 -9 -10 -9 -5 0 -10 7 -10 16 0 8 5 12
10 9 6 -3 10 -10 10 -16z m-53 -11 c-3 -8 -6 -5 -6 6 -1 11 2 17 5 13 3 -3 4
-12 1 -19z m1183 2 c-6 -11 -13 -20 -16 -20 -2 0 0 9 6 20 6 11 13 20 16 20 2
0 0 -9 -6 -20z m-1310 6 c0 -2 -8 -10 -17 -17 -16 -13 -17 -12 -4 4 13 16 21
21 21 13z m598 -6 c-25 -5 -56 -11 -67 -15 -12 -3 -21 -4 -21 -1 0 9 63 24
100 24 31 0 29 -1 -12 -8z m875 -60 c10 -13 10 -13 -5 -1 -10 7 -18 20 -18 27
0 8 -5 14 -11 14 -8 0 -7 6 2 17 13 15 14 13 17 -13 2 -16 9 -36 15 -44z
m-2133 45 c0 -8 -4 -15 -10 -15 -5 0 -10 7 -10 15 0 8 5 15 10 15 6 0 10 -7
10 -15z m1573 8 c-7 -2 -19 -2 -25 0 -7 3 -2 5 12 5 14 0 19 -2 13 -5z m-110
-10 c-7 -2 -19 -2 -25 0 -7 3 -2 5 12 5 14 0 19 -2 13 -5z m44 1 c-3 -3 -12
-4 -19 -1 -8 3 -5 6 6 6 11 1 17 -2 13 -5z m288 -5 c11 -16 1 -19 -13 -3 -7 8
-8 14 -3 14 5 0 13 -5 16 -11z m-970 -9 c3 -5 1 -10 -4 -10 -6 0 -11 5 -11 10
0 6 2 10 4 10 3 0 8 -4 11 -10z m320 0 c-11 -5 -27 -9 -35 -9 -9 0 -8 4 5 9
11 5 27 9 35 9 9 0 8 -4 -5 -9z m842 -12 c-3 -8 -6 -5 -6 6 -1 11 2 17 5 13 3
-3 4 -12 1 -19z m-386 5 l-23 -5 21 -14 c13 -10 20 -25 20 -42 l-2 -27 -4 27
c-2 16 -12 30 -24 33 -30 10 -24 35 9 34 25 -2 25 -2 3 -6z m144 -7 c20 -14
25 -70 9 -86 -6 -6 -8 5 -6 29 4 42 -2 50 -52 62 l-31 7 31 1 c16 1 39 -5 49
-13z m425 4 c0 -5 -4 -10 -10 -10 -5 0 -10 5 -10 10 0 6 5 10 10 10 6 0 10 -4
10 -10z m-1473 -22 c-3 -8 -6 -5 -6 6 -1 11 2 17 5 13 3 -3 4 -12 1 -19z m378
12 c-11 -5 -31 -8 -45 -8 -23 0 -22 1 5 8 42 11 65 11 40 0z m579 2 c-7 -4
-14 -18 -17 -32 -4 -21 -4 -20 -6 8 -1 24 3 32 17 32 11 0 13 -3 6 -8z m-924
-20 c0 -5 -7 -17 -15 -28 -14 -18 -14 -17 -4 9 12 27 19 34 19 19z m553 -9
c-7 -2 -19 -2 -25 0 -7 3 -2 5 12 5 14 0 19 -2 13 -5z m204 -9 c40 -7 73 -38
72 -67 -1 -20 -1 -20 -8 3 -9 33 -60 57 -135 64 -32 3 -61 8 -65 12 -6 6 68 0
136 -12z m203 -7 c0 -2 -10 -12 -22 -23 l-23 -19 19 23 c18 21 26 27 26 19z
m-437 -24 c-7 -2 -19 -2 -25 0 -7 3 -2 5 12 5 14 0 19 -2 13 -5z m145 -20
c-10 -2 -28 -2 -40 0 -13 2 -5 4 17 4 22 1 32 -1 23 -4z m-538 -7 c0 -3 -38
-26 -85 -51 -46 -25 -139 -85 -207 -133 -68 -48 -167 -115 -221 -147 -55 -33
-127 -84 -160 -112 -34 -29 -91 -74 -127 -100 -164 -119 -348 -274 -406 -344
-26 -31 -34 -36 -34 -22 0 31 70 138 131 202 232 240 945 709 1082 711 15 0
27 -2 27 -4z m603 -3 c-7 -2 -19 -2 -25 0 -7 3 -2 5 12 5 14 0 19 -2 13 -5z
m-444 -60 l0 -58 -15 40 c-9 26 -11 41 -4 43 5 2 10 10 10 18 0 8 2 14 5 14 3
0 5 -26 4 -57z m495 41 c24 -24 19 -30 -6 -8 -13 10 -25 20 -27 21 -2 2 1 3 7
3 6 0 18 -7 26 -16z m-131 -1 c-7 -2 -19 -2 -25 0 -7 3 -2 5 12 5 14 0 19 -2
13 -5z m-483 -28 c0 -18 -48 -93 -100 -159 -90 -111 -191 -210 -310 -302 -58
-45 -139 -111 -180 -147 -41 -36 -121 -93 -178 -127 -122 -73 -235 -162 -292
-230 -43 -51 -63 -61 -168 -81 -76 -14 -90 -6 -74 40 14 38 140 191 184 223
18 12 66 53 107 91 88 81 251 206 306 235 22 11 51 32 65 47 14 15 50 44 80
63 30 19 71 48 91 63 20 16 60 40 90 55 30 15 80 47 113 72 58 45 244 161 259
162 4 0 7 -2 7 -5z m203 -10 c-3 -9 -8 -14 -10 -11 -3 3 -2 9 2 15 9 16 15 13
8 -4z m307 -45 c41 -41 9 -154 -52 -186 -122 -63 -269 76 -178 168 22 21 35
28 48 22 37 -16 78 -16 91 0 19 22 67 20 91 -4z m-1853 -52 c-2 -13 -4 -5 -4
17 -1 22 1 32 4 23 2 -10 2 -28 0 -40z m88 7 l30 -25 -37 20 -36 21 8 -36 c5
-20 16 -46 27 -58 l18 -22 -22 19 c-36 30 -54 106 -25 106 4 0 21 -11 37 -25z
m755 21 c0 -2 -8 -10 -17 -17 -16 -13 -17 -12 -4 4 13 16 21 21 21 13z m-826
-72 c3 -8 2 -12 -4 -9 -6 3 -10 10 -10 16 0 14 7 11 14 -7z m609 2 c18 -7 41
-24 52 -37 l20 -23 -25 15 c-32 20 -79 30 -75 15 2 -6 6 -24 9 -41 4 -23 0
-19 -19 19 -32 67 -24 79 38 52z m1708 -113 c13 -16 12 -17 -3 -4 -17 13 -22
21 -14 21 2 0 10 -8 17 -17z m160 -30 c12 -16 11 -16 -9 1 -20 17 -26 18 -61
6 -21 -7 -45 -10 -52 -7 -8 3 -3 6 11 7 14 0 33 7 44 15 21 16 43 8 67 -22z
m-2806 -3 c10 -11 16 -20 13 -20 -3 0 -13 9 -23 20 -10 11 -16 20 -13 20 3 0
13 -9 23 -20z m2355 -80 c0 -91 20 -115 104 -125 81 -10 62 -18 -24 -9 -40 4
-78 13 -86 21 -9 9 -14 35 -14 72 0 32 -3 61 -6 64 -4 4 -23 -6 -43 -22 -42
-33 -81 -54 -87 -48 -3 2 8 10 24 16 16 7 49 32 73 57 24 24 47 44 51 44 4 0
8 -32 8 -70z m-1597 37 c-4 -6 0 -8 10 -4 10 3 17 2 17 -3 0 -14 -24 -12 -38
2 -17 17 -15 29 3 22 8 -4 12 -11 8 -17z m-475 -4 c-10 -2 -28 -2 -40 0 -13 2
-5 4 17 4 22 1 32 -1 23 -4z m-81 -9 c-3 -3 -12 -4 -19 -1 -8 3 -5 6 6 6 11 1
17 -2 13 -5z m-52 -16 c-11 -6 -34 -22 -50 -37 -17 -14 -14 -9 7 12 20 20 43
37 50 37 7 0 4 -6 -7 -12z m500 -86 c-3 -3 -11 0 -18 7 -9 10 -8 11 6 5 10 -3
15 -9 12 -12z m1023 -25 c24 -12 53 -38 65 -56 20 -33 19 -33 -23 10 -28 27
-64 51 -95 61 -27 10 -36 15 -20 12 17 -2 49 -15 73 -27z m349 7 c-3 -3 -12
-4 -19 -1 -8 3 -5 6 6 6 11 1 17 -2 13 -5z m173 -3 c0 -5 -6 -14 -14 -20 -12
-10 -13 -8 -9 8 5 21 23 30 23 12z m-1977 -15 c3 -8 2 -27 -3 -43 -8 -27 -8
-27 -9 10 -1 40 -13 46 -54 26 -21 -10 -21 -10 -3 5 25 20 62 21 69 2z m1337
4 c8 -5 11 -10 5 -10 -5 0 -17 5 -25 10 -8 5 -10 10 -5 10 6 0 17 -5 25 -10z
m755 -19 c-3 -6 -11 -11 -17 -11 -6 0 -6 6 2 15 14 17 26 13 15 -4z m-2338
-43 c-2 -13 -4 -5 -4 17 -1 22 1 32 4 23 2 -10 2 -28 0 -40z m1599 11 c64 -30
140 -97 185 -161 16 -23 2 -14 -43 30 -82 77 -105 83 -72 21 8 -17 13 -34 9
-37 -4 -4 -11 2 -17 13 -6 11 -44 53 -84 93 -82 80 -77 89 22 41z m268 13
c-12 -9 -26 -26 -32 -37 -6 -11 -12 -14 -12 -7 0 14 44 62 57 62 4 0 -2 -8
-13 -18z m-169 -27 c17 -12 45 -44 63 -71 25 -37 26 -40 5 -14 -36 45 -61 70
-98 98 -37 29 -11 17 30 -13z m898 28 c-7 -2 -19 -2 -25 0 -7 3 -2 5 12 5 14
0 19 -2 13 -5z m-2056 -22 c14 -9 12 -10 -12 -4 -52 12 -103 6 -141 -16 -24
-14 -33 -17 -25 -7 7 8 21 18 32 21 11 4 17 10 15 14 -7 11 111 4 131 -8z
m1787 -27 c8 -32 1 -44 -9 -15 -6 21 -21 27 -80 34 -16 2 -5 5 26 6 53 1 57
-1 63 -25z m-2137 -34 c2 -44 2 -45 -8 -12 -18 60 -70 19 -95 -75 -8 -30 -13
-39 -13 -23 -1 32 34 108 62 138 32 35 52 25 54 -28z m40 18 c-3 -8 -6 -5 -6
6 -1 11 2 17 5 13 3 -3 4 -12 1 -19z m2323 14 c0 -4 -9 -13 -20 -20 -19 -12
-20 -11 -8 8 13 20 28 27 28 12z m-283 -8 c-3 -3 -12 -4 -19 -1 -8 3 -5 6 6 6
11 1 17 -2 13 -5z m-1064 -28 c4 -10 1 -13 -7 -10 -23 9 -31 -18 -11 -33 18
-12 17 -13 -6 -13 -39 0 -42 11 -12 42 31 33 29 32 36 14z m1458 -7 c28 -15
79 -88 78 -113 -1 -18 -2 -17 -9 5 -12 40 -39 76 -73 98 -33 22 -30 29 4 10z
m-6 -35 c26 -18 15 -18 -21 0 -15 8 -31 13 -36 10 -4 -3 -8 0 -8 6 0 13 35 4
65 -16z m-701 0 c5 -14 4 -15 -9 -4 -9 7 -18 10 -22 6 -4 -3 4 -14 17 -23 22
-15 22 -17 5 -30 -28 -20 -32 -16 -29 25 2 45 1 42 18 42 8 0 17 -7 20 -16z
m626 12 c0 -2 -9 -6 -20 -9 -11 -3 -18 -1 -14 4 5 9 34 13 34 5z m-2399 -83
c16 -53 39 -99 76 -150 38 -53 51 -79 45 -90 -10 -17 -38 14 -107 120 -21 31
-42 57 -48 57 -6 0 -7 -17 -4 -41 7 -50 55 -124 108 -163 21 -17 39 -38 39
-48 0 -25 -10 -23 -57 12 -101 74 -159 212 -133 311 25 95 52 92 81 -8z m16
30 c-3 -10 -5 -4 -5 12 0 17 2 24 5 18 2 -7 2 -21 0 -30z m2416 30 c-7 -2 -21
-2 -30 0 -10 3 -4 5 12 5 17 0 24 -2 18 -5z m-2173 -11 c0 -4 -15 -13 -34 -20
-41 -15 -61 -56 -51 -103 5 -20 4 -29 -3 -25 -5 3 -13 21 -16 41 -8 38 12 87
41 104 21 12 63 14 63 3z m2330 -7 c0 -8 -2 -15 -4 -15 -2 0 -6 7 -10 15 -3 8
-1 15 4 15 6 0 10 -7 10 -15z m-959 -12 c13 -16 12 -17 -3 -4 -10 7 -18 15
-18 17 0 8 8 3 21 -13z m994 -30 c-8 -8 -15 -18 -15 -23 0 -4 -8 -11 -17 -14
-15 -6 -15 -5 1 13 12 13 17 30 14 46 -5 24 -4 25 13 9 16 -14 16 -18 4 -31z
m-579 -7 c11 -8 29 -33 39 -56 12 -26 33 -50 59 -66 23 -15 32 -23 21 -19 -11
3 -32 9 -47 12 -26 5 -28 3 -28 -28 l-1 -34 -14 32 c-8 18 -32 50 -54 71 -42
39 -51 68 -29 90 16 16 29 15 54 -2z m-646 -19 c18 -10 48 -17 66 -17 34 0 50
-6 216 -83 193 -90 327 -201 380 -312 30 -65 30 -68 26 -193 -3 -86 -10 -139
-21 -164 -23 -55 -100 -132 -192 -193 -171 -114 -301 -152 -555 -162 -135 -5
-168 -3 -255 16 -257 55 -431 135 -545 251 -90 91 -168 264 -154 343 10 54 54
188 71 218 39 65 38 15 -1 -71 -30 -69 -34 -199 -7 -270 24 -62 136 -218 178
-248 47 -33 224 -118 293 -140 147 -48 396 -74 510 -53 125 22 306 95 411 166
166 112 204 172 204 325 0 110 -20 165 -94 258 -93 116 -299 249 -447 286
-102 26 -311 47 -396 40 -86 -7 -141 1 -117 17 8 6 88 9 205 6 151 -3 198 -7
224 -20z m347 1 c-3 -8 -6 -5 -6 6 -1 11 2 17 5 13 3 -3 4 -12 1 -19z m691 -4
c2 -12 -4 -24 -12 -27 -20 -8 -47 19 -39 39 8 22 47 13 51 -12z m254 -56 c-8
-8 -9 -4 -5 13 4 13 8 18 11 10 2 -7 -1 -18 -6 -23z m-2777 -76 c-5 -6 -25 61
-24 82 0 12 6 -1 14 -29 7 -27 12 -51 10 -53z m1305 78 c80 -5 183 -19 230
-31 111 -27 243 -90 272 -130 13 -17 53 -53 90 -79 76 -56 107 -93 144 -174
25 -56 26 -63 16 -120 -31 -166 -53 -201 -184 -287 -229 -150 -503 -193 -784
-125 -62 15 -120 33 -130 41 -17 12 -16 14 16 34 43 26 56 26 115 0 58 -26 83
-20 140 32 62 58 72 94 45 166 -12 32 -28 68 -36 80 -52 80 -213 71 -287 -17
-49 -57 -48 -85 7 -167 l34 -52 -35 -12 c-19 -6 -37 -17 -39 -24 -4 -9 -30 -2
-96 28 -81 38 -97 50 -159 121 -77 88 -108 156 -116 252 -13 148 91 335 222
401 63 33 168 63 220 64 22 0 49 4 60 9 11 5 40 7 65 5 25 -2 110 -9 190 -15z
m636 -32 l19 -21 -27 18 c-29 18 -34 25 -20 25 5 0 17 -10 28 -22z m45 -35
c13 -16 12 -17 -3 -4 -10 7 -18 15 -18 17 0 8 8 3 21 -13z m299 -13 c-8 -5
-19 -10 -25 -10 -5 0 -3 5 5 10 8 5 20 10 25 10 6 0 3 -5 -5 -10z m-216 -49
c-2 -3 10 -20 28 -38 17 -18 30 -33 27 -33 -2 0 -31 28 -64 61 -51 52 -55 58
-23 38 20 -13 35 -26 32 -28z m166 45 c0 -2 -9 -6 -20 -9 -11 -3 -18 -1 -14 4
5 9 34 13 34 5z m-125 -36 c10 -11 16 -20 13 -20 -3 0 -13 9 -23 20 -10 11
-16 20 -13 20 3 0 13 -9 23 -20z m232 -14 c4 -3 -3 -16 -15 -29 -12 -13 -23
-30 -23 -38 -1 -8 -4 2 -8 21 -5 28 -11 36 -32 38 -21 2 -29 -3 -39 -28 -7
-17 -14 -29 -17 -27 -6 7 17 61 30 70 13 8 94 3 104 -7z m233 5 c0 -21 -59
-51 -97 -49 l-38 1 45 6 c34 5 47 12 55 29 10 22 35 31 35 13z m-143 -67 c-3
-3 -12 -4 -19 -1 -8 3 -5 6 6 6 11 1 17 -2 13 -5z m-286 -31 c13 -16 12 -17
-3 -4 -10 7 -18 15 -18 17 0 8 8 3 21 -13z m156 -25 c-3 -7 -5 -2 -5 12 0 14
2 19 5 13 2 -7 2 -19 0 -25z m113 -23 c7 -18 17 -25 35 -25 14 0 25 -4 25 -9
0 -18 -55 5 -65 27 -5 12 -16 23 -25 26 -11 3 -11 4 3 5 10 1 21 -9 27 -24z
m-10 -124 c-1 -9 -60 62 -60 72 0 6 14 -7 30 -28 17 -21 30 -41 30 -44z m36
40 c26 -24 30 -35 25 -58 l-6 -28 -3 27 c-2 14 -11 32 -20 40 -11 9 -14 10 -8
1 4 -7 3 -13 -2 -13 -5 0 -12 8 -16 18 -3 9 -9 23 -12 30 -10 21 10 13 42 -17z
m-2190 -80 c-4 -6 -15 -10 -24 -10 -15 1 -14 2 1 6 12 3 16 10 12 21 -5 13 -3
14 6 5 6 -6 8 -16 5 -22z m2039 -102 c4 -12 3 -25 -3 -31 -6 -6 -11 1 -14 21
-5 35 7 42 17 10z m-1136 -57 c76 -52 97 -105 67 -177 -21 -49 -72 -72 -124
-57 -51 16 -118 75 -132 117 -16 47 9 89 70 121 57 31 68 30 119 -4z m-1132
-29 c-3 -10 -5 -2 -5 17 0 19 2 27 5 18 2 -10 2 -26 0 -35z m189 -11 c-16 -2
-32 0 -37 5 -5 5 7 7 29 4 34 -5 35 -6 8 -9z m196 -10 c-7 -2 -12 -8 -12 -13
0 -4 8 -6 18 -2 13 5 12 1 -5 -19 -25 -26 -31 -44 -11 -32 7 4 8 3 4 -5 -4 -6
-12 -8 -18 -5 -8 5 -9 1 -5 -10 5 -11 3 -15 -5 -10 -8 5 -9 2 -5 -10 5 -11 3
-15 -5 -10 -7 5 -9 0 -6 -14 4 -12 2 -20 -2 -17 -5 3 -11 -3 -13 -12 -3 -10
-3 0 0 22 2 22 5 48 6 57 1 9 5 14 10 11 5 -3 7 1 6 8 -4 18 45 92 50 77 2 -7
-1 -14 -7 -16z m-401 -25 c-10 -9 -11 -8 -5 6 3 10 9 15 12 12 3 -3 0 -11 -7
-18z m2339 -7 c0 -13 -37 -50 -49 -50 -5 0 -18 -3 -28 -7 -16 -6 -16 -5 -4 10
8 10 11 20 7 24 -3 4 8 12 26 19 43 15 48 16 48 4z m-2268 -102 c22 -6 44 -20
50 -31 10 -19 9 -19 -24 1 -19 12 -45 26 -59 31 -34 14 -14 13 33 -1z m378 9
c0 -2 -15 -16 -32 -33 l-33 -29 29 33 c28 30 36 37 36 29z m1847 -13 c-3 -3
-12 -4 -19 -1 -8 3 -5 6 6 6 11 1 17 -2 13 -5z m173 -19 c0 -19 -20 -29 -32
-17 -15 15 -2 43 17 36 8 -3 15 -12 15 -19z m-2000 9 c0 -13 -58 -72 -65 -66
-3 3 -3 -2 1 -12 5 -13 4 -17 -4 -12 -8 5 -10 2 -5 -10 5 -15 7 -14 16 2 15
30 49 64 63 64 6 0 19 -18 28 -40 20 -50 20 -76 0 -35 -8 17 -12 22 -9 12 3
-10 7 -37 10 -60 5 -41 5 -41 -5 -9 -16 49 -22 38 -16 -28 4 -37 2 -60 -4 -60
-6 0 -10 -19 -10 -43 0 -95 -24 -141 -128 -248 -53 -55 -99 -103 -102 -106 -3
-3 19 10 48 28 97 60 170 41 212 -56 22 -49 35 -125 22 -125 -5 0 -17 9 -28
21 -66 73 -162 62 -245 -28 -51 -56 -69 -83 -28 -46 49 46 92 60 124 39 54
-36 68 -112 26 -150 -10 -9 -51 -27 -91 -41 -40 -14 -88 -36 -106 -50 -42 -32
-50 -14 -17 43 28 48 25 72 -11 72 -55 0 -58 11 -11 41 25 16 45 32 45 37 0
13 100 122 112 122 6 0 17 8 25 18 8 9 12 11 8 5 -4 -9 -1 -11 9 -7 9 3 13 10
10 15 -3 5 3 6 12 2 10 -3 15 -2 12 3 -4 5 17 8 48 6 57 -4 62 0 43 41 -15 33
-82 66 -95 46 -3 -5 -15 -7 -26 -3 -15 4 -18 3 -13 -7 6 -9 4 -11 -8 -6 -9 3
-17 3 -19 -1 -2 -4 -22 -20 -46 -35 -24 -15 -62 -45 -85 -65 l-42 -37 35 45
c42 53 189 212 207 223 8 5 11 12 8 17 -3 5 4 15 15 23 11 7 17 17 13 20 -3 4
-1 7 6 7 7 0 9 5 6 10 -3 6 -2 10 4 10 6 0 7 7 4 17 -4 11 -3 14 6 9 9 -6 10
0 6 21 -5 22 -4 25 5 13 8 -11 10 -1 6 45 -4 44 -3 51 3 25 8 -35 9 -31 15
172 1 36 -23 32 -39 -6 -20 -48 -47 -177 -40 -194 3 -8 0 -10 -7 -6 -8 5 -9 2
-5 -10 5 -11 3 -15 -5 -10 -8 5 -9 2 -5 -10 4 -9 3 -15 -2 -12 -8 5 -25 -20
-24 -34 1 -3 -42 -48 -94 -100 l-94 -95 45 66 c26 37 61 98 78 135 31 65 33
77 39 214 3 80 7 132 8 115 2 -16 3 -35 2 -42 -1 -6 3 -14 9 -18 5 -3 10 -16
10 -28 0 -18 -2 -19 -10 -7 -8 12 -10 10 -10 -8 0 -13 4 -20 10 -17 11 7 14
-18 3 -29 -4 -4 -8 -22 -9 -40 -3 -51 -24 -117 -51 -164 -36 -63 -22 -62 26 0
58 78 97 187 71 203 -5 3 -10 16 -10 28 0 17 2 19 10 7 13 -21 23 -5 11 18
-16 31 -13 49 4 26 14 -18 14 -17 5 9 -11 32 -2 56 38 100 24 26 42 34 42 21z
m1940 -14 c0 -5 -5 -10 -11 -10 -6 0 -9 -9 -6 -20 3 -11 1 -18 -4 -14 -10 6
-12 38 -2 47 10 10 23 8 23 -3z m97 -18 c-2 -15 -7 -34 -12 -41 -5 -9 -4 -12
3 -7 15 9 27 -13 13 -27 -7 -7 -12 -6 -17 6 -4 12 -14 15 -37 11 l-32 -4 28
11 c31 12 38 40 8 32 -11 -3 -28 0 -38 6 -15 9 -13 10 12 5 23 -4 35 0 49 15
25 27 26 27 23 -7z m-352 -53 c14 -42 -61 -119 -114 -119 -69 0 -66 34 9 98
63 53 93 59 105 21z m178 -30 c40 -9 47 -14 47 -35 0 -24 0 -24 -32 -7 -18 9
-41 17 -51 18 -10 1 -28 12 -40 25 l-22 23 25 -7 c14 -3 46 -11 73 -17z
m-1650 -39 c114 -72 290 -135 464 -165 211 -37 519 1 704 86 68 32 94 33 105
4 10 -25 -22 -51 -120 -99 -152 -75 -228 -90 -451 -90 -180 0 -196 2 -306 31
-184 49 -334 129 -428 227 -42 44 -31 46 32 6z m-234 -32 c-2 -52 -2 -52 -8
-13 l-6 40 -13 -30 -12 -30 6 30 c5 27 21 55 30 55 2 0 3 -24 3 -52z m-259 7
c0 -19 -4 -35 -10 -35 -11 0 -13 30 -4 54 10 25 14 19 14 -19z m373 5 c-3 -12
-8 -19 -11 -16 -5 6 5 36 12 36 2 0 2 -9 -1 -20z m-31 -162 c2 -58 0 -101 -4
-95 -4 7 -7 71 -6 142 1 141 6 122 10 -47z m303 -18 c113 -55 271 -110 319
-110 14 0 17 -3 9 -8 -9 -6 -1 -19 27 -47 43 -42 49 -55 25 -51 -20 3 -76 57
-69 67 2 4 -1 11 -7 15 -8 4 -9 3 -5 -4 10 -16 -3 -14 -34 3 -14 8 -19 14 -11
15 8 0 12 3 8 6 -3 3 -13 2 -22 -3 -14 -8 -13 -12 13 -22 32 -13 84 -59 120
-106 14 -18 19 -21 13 -8 -14 28 -14 30 5 30 16 0 50 -55 40 -65 -3 -3 -6 1
-6 9 0 11 -2 11 -10 -1 -7 -11 -10 -11 -10 -2 0 7 -5 10 -11 6 -6 -3 -30 16
-55 44 -71 81 -168 119 -238 92 -46 -17 -27 0 27 25 32 16 44 25 31 25 -12 0
-39 7 -60 16 -38 16 -38 16 -62 -12 -44 -55 -72 -111 -92 -185 -10 -41 -19
-65 -19 -54 -2 58 46 176 93 232 29 34 25 43 -32 72 -43 22 -43 22 -98 3 -30
-10 -52 -21 -49 -24 3 -3 -15 -2 -39 2 -25 4 -43 3 -40 -2 3 -4 15 -9 27 -9
19 -1 19 -2 3 -6 -19 -5 -38 8 -42 29 -2 7 -10 31 -18 53 -8 22 -15 51 -14 65
0 14 6 2 13 -28 7 -29 18 -59 25 -67 16 -20 79 -19 130 1 l40 16 -25 20 c-14
10 -30 16 -36 12 -7 -4 -9 -3 -5 4 9 15 -13 27 -27 13 -18 -18 -67 -14 -66 7
0 10 3 12 6 5 6 -15 49 -17 58 -3 3 5 -5 21 -17 35 -20 24 -23 24 -30 8 -7
-16 -7 -15 -5 3 1 11 -5 29 -13 40 -8 10 14 -7 50 -39 45 -41 102 -76 185
-117z m1523 114 c20 -3 68 -52 59 -60 -4 -4 -33 10 -64 31 -32 21 -63 38 -70
38 -9 0 -10 4 -2 13 9 11 16 10 36 -4 14 -9 33 -17 41 -18z m-2451 -21 c-3
-10 -5 -4 -5 12 0 17 2 24 5 18 2 -7 2 -21 0 -30z m283 27 c0 -5 -4 -10 -10
-10 -5 0 -10 5 -10 10 0 6 5 10 10 10 6 0 10 -4 10 -10z m407 -22 c-3 -7 -5
-2 -5 12 0 14 2 19 5 13 2 -7 2 -19 0 -25z m1596 15 c18 -9 26 -18 19 -20 -6
-3 -10 -9 -7 -14 4 -5 -1 -6 -10 -2 -13 5 -14 7 -3 14 9 6 3 10 -19 15 -18 4
-33 10 -33 15 0 13 17 11 53 -8z m-1836 -25 c-3 -7 -5 -2 -5 12 0 14 2 19 5
13 2 -7 2 -19 0 -25z m-167 -3 c0 -8 -2 -15 -4 -15 -2 0 -6 7 -10 15 -3 8 -1
15 4 15 6 0 10 -7 10 -15z m2188 -67 l23 -16 -25 -6 c-16 -4 -38 2 -68 19 -52
30 -43 33 13 4 23 -11 43 -19 44 -17 2 2 -16 14 -41 27 -41 22 -53 39 -37 55
4 3 20 -7 37 -22 17 -16 41 -36 54 -44z m47 2 c-6 -10 -24 -3 -57 23 -31 25
-19 28 22 7 23 -12 38 -25 35 -30z m-2428 -10 c13 0 33 5 45 11 18 10 19 8 13
-13 -14 -44 -60 -121 -82 -135 -26 -17 -53 -11 -79 20 -12 14 -13 17 -3 9 9
-6 20 -8 24 -4 5 4 5 2 2 -4 -10 -17 21 -26 43 -14 24 13 60 63 60 84 0 9 -15
22 -32 29 -18 8 -42 25 -53 38 l-20 23 29 -22 c16 -12 40 -22 53 -22z m2093
36 c0 -2 -12 -12 -27 -21 l-28 -18 19 21 c17 20 36 29 36 18z m-1591 -53 c0
-25 -1 -26 -9 -8 -12 27 -12 35 0 35 6 0 10 -12 9 -27z m1504 -110 c22 -42 82
-90 121 -97 18 -4 54 0 82 9 62 19 103 19 54 0 -28 -11 -30 -14 -12 -14 12 -1
22 -6 22 -13 0 -6 9 -3 20 7 12 10 18 25 16 32 -6 15 12 17 32 4 11 -6 7 -13
-14 -30 -14 -11 -31 -21 -35 -21 -20 0 -25 -2 -49 -23 l-25 -22 23 26 23 26
-22 6 c-12 3 -42 3 -68 1 -60 -7 -125 26 -164 82 -23 32 -29 55 -32 105 l-4
64 8 -55 c4 -30 15 -69 24 -87z m-1593 111 c0 -8 -5 -12 -10 -9 -6 4 -8 11 -5
16 9 14 15 11 15 -7z m1667 -1 c-4 -28 -17 -44 -29 -37 -8 5 -9 1 -5 -12 7
-18 7 -18 -8 0 -8 11 -15 25 -15 30 0 6 4 5 8 -2 6 -9 12 -6 20 13 13 28 33
34 29 8z m203 -15 c47 -39 49 -56 13 -89 -16 -13 -22 -17 -15 -9 20 24 14 57
-19 95 -39 44 -30 45 21 3z m-31 -13 c33 -38 41 -56 16 -35 -17 14 -19 7 -6
-19 6 -10 6 -23 0 -32 -6 -10 -9 -7 -9 13 0 30 -61 87 -95 89 -17 1 -16 2 5 9
45 14 57 11 89 -25z m-2249 -12 c0 -25 -17 -21 -27 7 -10 27 -10 28 8 17 10
-6 19 -17 19 -24z m1885 -23 c-8 -27 -14 -36 -14 -23 -1 21 19 76 25 70 2 -1
-3 -23 -11 -47z m465 35 c0 -8 -2 -15 -4 -15 -2 0 -6 7 -10 15 -3 8 -1 15 4
15 6 0 10 -7 10 -15z m-1870 -45 c-6 -11 -13 -20 -16 -20 -2 0 0 9 6 19 5 11
7 28 4 38 -5 17 -5 17 6 1 8 -13 8 -23 0 -38z m340 31 c0 -5 -9 -7 -20 -4 -11
3 -20 7 -20 9 0 2 9 4 20 4 11 0 20 -4 20 -9z m-440 -17 c0 -8 -5 -12 -10 -9
-6 4 -17 3 -23 -2 -7 -4 -4 0 6 10 24 21 27 21 27 1z m417 -11 c3 -7 -1 -20
-7 -30 -10 -16 -10 -15 -5 5 5 18 2 22 -15 22 -32 0 -94 -35 -124 -70 -29 -35
-35 -28 -9 10 l17 25 -22 -19 c-12 -11 -22 -26 -22 -34 0 -9 -3 -13 -6 -9 -11
11 7 45 33 62 14 9 22 12 18 5 -5 -8 -3 -11 6 -8 8 3 13 10 12 16 -2 7 4 9 14
5 11 -4 14 -3 9 5 -5 8 -1 10 10 5 12 -4 15 -3 10 5 -5 8 -1 10 10 5 10 -3 15
-2 12 3 -4 5 8 9 25 9 17 0 32 -5 34 -12z m1013 -13 c0 -16 -2 -30 -4 -30 -2
0 -6 14 -8 30 -3 17 -1 30 4 30 4 0 8 -13 8 -30z m419 -4 c-3 -3 -11 5 -18 17
-13 21 -12 21 5 5 10 -10 16 -20 13 -22z m381 22 c0 -7 -5 -20 -10 -28 -8 -13
-10 -12 -10 4 0 18 -2 18 -27 -5 -27 -23 -27 -23 1 9 31 34 46 40 46 20z
m-856 -24 c-5 -20 -4 -25 6 -19 9 5 10 2 5 -15 -5 -17 -4 -21 5 -15 9 5 11 4
6 -4 -10 -16 -21 -7 -36 30 -11 26 -11 32 1 40 20 12 20 12 13 -17z m-1774 12
c0 -2 -8 -10 -17 -17 -16 -13 -17 -12 -4 4 13 16 21 21 21 13z m543 -22 c1 -4
-6 -8 -15 -10 -14 -2 -15 1 -5 17 11 17 14 16 20 -7z m63 6 c11 0 10 -4 -3
-18 -10 -10 -25 -16 -32 -13 -10 3 -11 6 -3 9 7 2 12 13 13 25 0 12 3 16 6 10
2 -7 11 -13 19 -13z m-386 -10 c-6 -11 -13 -20 -16 -20 -2 0 0 9 6 20 6 11 13
20 16 20 2 0 0 -9 -6 -20z m760 16 c0 -2 -7 -7 -16 -10 -8 -3 -12 -2 -9 4 6
10 25 14 25 6z m984 -4 c3 -5 -1 -9 -9 -9 -8 0 -12 4 -9 9 3 4 7 8 9 8 2 0 6
-4 9 -8z m690 -4 c-3 -4 -9 -8 -15 -8 -5 0 -9 4 -9 8 0 5 7 9 15 9 8 0 12 -4
9 -9z m-2174 -12 c0 -2 -8 -10 -17 -17 -16 -13 -17 -12 -4 4 13 16 21 21 21
13z m1190 -32 c3 -16 3 -47 0 -69 l-6 -40 -6 50 c-4 28 -10 61 -14 74 -5 18
-4 23 7 19 7 -2 16 -18 19 -34z m1005 27 c3 -5 1 -12 -5 -16 -5 -3 -10 1 -10
9 0 18 6 21 15 7z m-1754 -15 c-10 -11 -9 -16 5 -24 15 -8 15 -9 0 -15 -10 -4
-14 -3 -11 2 3 5 1 13 -5 16 -10 6 4 35 17 35 3 0 0 -6 -6 -14z m387 -14 c15
-19 58 -101 72 -136 7 -20 5 -23 -19 -24 -23 0 -29 6 -44 47 -9 26 -36 69 -59
96 l-42 48 39 -7 c22 -4 46 -15 53 -24z m96 -55 c42 -86 51 -117 37 -117 -6 0
-11 7 -11 16 0 8 -5 12 -11 8 -8 -4 -9 1 -4 16 4 13 3 20 -2 17 -5 -3 -22 19
-36 49 -15 31 -22 53 -15 49 7 -4 3 2 -10 12 -22 18 -22 19 -3 20 16 1 28 -14
55 -70z m66 30 c24 -53 38 -157 22 -157 -7 0 -14 12 -17 28 -3 15 -16 60 -29
100 -20 59 -22 72 -10 72 9 0 24 -19 34 -43z m65 -29 c38 -83 50 -128 35 -128
-5 0 -10 9 -10 20 0 11 -7 20 -15 20 -17 0 -20 17 -5 22 6 2 4 11 -5 23 -15
19 -16 16 -11 -37 2 -33 0 -58 -5 -58 -5 0 -9 20 -9 43 0 39 -14 100 -35 150
-5 12 -2 17 9 17 11 0 29 -25 51 -72z m27 45 c18 -32 44 -112 52 -163 l6 -35
-20 24 c-11 13 -20 33 -20 45 0 11 -14 50 -30 84 -34 73 -34 72 -17 72 7 0 20
-12 29 -27z m337 -68 l36 -40 -38 35 c-36 33 -68 79 -67 97 1 4 8 -5 17 -22 8
-16 32 -48 52 -70z m43 -14 c13 -15 6 -10 -14 11 -26 26 -38 46 -38 65 1 26 2
25 15 -11 7 -21 24 -50 37 -65z m31 74 c-7 -21 -13 -19 -13 6 0 11 4 18 10 14
5 -3 7 -12 3 -20z m-1655 3 c-2 -6 -15 -12 -28 -13 -21 -2 -22 -1 -5 12 23 16
38 17 33 1z m705 5 c-13 -2 -35 -2 -50 0 -16 2 -5 4 22 4 28 0 40 -2 28 -4z
m-448 -32 c10 -20 11 -32 5 -36 -6 -4 -10 -3 -9 2 3 20 -2 34 -11 28 -6 -4 -9
-1 -8 5 2 7 -5 14 -15 15 -30 5 -33 15 -4 15 19 0 31 -8 42 -29z m539 -2 c25
-17 52 -41 58 -53 7 -14 0 -10 -21 12 -18 18 -50 41 -70 52 -20 10 -31 19 -25
20 6 0 32 -14 58 -31z m1421 21 c-3 -5 -15 -15 -26 -21 -19 -10 -20 -9 -9 10
6 12 18 21 26 21 8 0 12 -4 9 -10z m-720 -20 c10 -11 16 -20 13 -20 -3 0 -13
9 -23 20 -10 11 -16 20 -13 20 3 0 13 -9 23 -20z m-1178 -52 c-2 -13 -4 -5 -4
17 -1 22 1 32 4 23 2 -10 2 -28 0 -40z m-387 12 c-6 -11 -16 -17 -22 -14 -7 5
-5 12 7 21 25 18 28 17 15 -7z m1771 -22 c15 -28 5 -21 -21 15 -15 20 -17 27
-6 18 9 -8 22 -23 27 -33z m-1301 19 c0 -8 -7 -14 -15 -14 -16 0 -19 9 -8 20
11 11 23 8 23 -6z m325 -14 c18 -12 13 -13 -43 -7 -56 6 -66 4 -102 -20 -24
-16 -37 -20 -34 -12 3 8 17 22 31 32 54 35 105 37 148 7z m714 24 c-2 -2 -17
-11 -34 -21 l-30 -17 24 20 c13 12 28 21 34 21 6 0 8 -1 6 -3z m365 -32 c20
-9 34 -19 32 -24 -10 -16 -41 -18 -71 -4 l-30 13 33 -6 c37 -6 43 8 10 24 -35
16 -15 14 26 -3z m-1682 -32 c25 -23 22 -40 -8 -47 -32 -8 -44 -1 -15 9 26 8
27 30 4 44 -10 6 -14 11 -9 11 5 0 18 -7 28 -17z m-400 -20 c-6 -10 -25 -17
-48 -19 l-39 -3 32 10 c18 5 35 14 38 19 11 18 27 11 17 -7z m1820 -14 c37
-18 68 -35 68 -40 0 -13 -38 -21 -62 -13 -13 4 -55 6 -95 6 -77 -2 -91 6 -71
37 30 48 71 50 160 10z m-1512 3 c0 -5 -12 -19 -27 -33 -27 -23 -27 -23 -8 -1
16 20 17 25 5 32 -12 8 -10 10 8 10 12 0 22 -4 22 -8z m1760 -12 c0 -5 -7 -7
-15 -4 -8 4 -15 8 -15 10 0 2 7 4 15 4 8 0 15 -4 15 -10z m-2127 -18 c10 -5
-20 -40 -44 -53 -13 -7 -16 -5 -14 9 2 9 4 22 4 27 1 6 5 4 10 -4 6 -9 10 -10
16 -2 4 7 1 19 -6 27 -10 12 -9 13 7 8 10 -4 23 -9 27 -12z m1040 -105 c31
-47 19 -79 -33 -90 -21 -5 32 -1 66 5 17 2 3 61 -22 91 -16 19 -24 41 -24 68
0 36 2 39 29 39 24 0 28 -3 24 -24 -4 -17 4 -33 26 -55 35 -36 40 -74 16 -121
-18 -34 -35 -40 -97 -36 -88 7 -184 90 -164 142 7 17 9 16 22 -9 8 -15 12 -33
8 -40 -4 -6 -4 -9 1 -5 9 9 37 -11 31 -21 -3 -4 3 -7 12 -7 9 -1 28 -4 42 -8
15 -4 32 -2 43 7 18 13 18 15 -4 78 -15 44 -20 72 -14 85 7 15 10 10 15 -27 3
-25 13 -58 23 -72z m-74 16 c2 -55 -45 -39 -54 17 -3 26 -3 28 3 11 13 -43 32
-37 33 11 1 36 2 39 9 18 4 -14 8 -40 9 -57z m1309 35 c-22 -32 -78 -58 -123
-57 l-40 2 45 6 c51 8 77 20 104 50 25 27 32 27 14 -1z m-1009 -146 c1 -132
-12 -162 -74 -161 l-30 0 33 14 c52 23 65 68 60 200 -3 61 -1 97 3 80 3 -16 7
-76 8 -133z m53 144 c8 5 9 -4 5 -26 -4 -18 -7 -63 -7 -101 0 -102 -16 -83
-23 27 -6 87 -1 140 11 106 2 -7 9 -9 14 -6z m378 4 c0 -5 -5 -10 -11 -10 -5
0 -7 5 -4 10 3 6 8 10 11 10 2 0 4 -4 4 -10z m-1450 -5 c0 -13 -33 -55 -44
-55 -6 0 -4 4 4 10 8 5 11 12 7 16 -3 4 -12 3 -20 -2 -7 -5 -1 1 13 13 24 22
40 29 40 18z m2514 -10 c16 -12 17 -15 4 -15 -9 0 -19 6 -21 13 -3 6 -6 -7 -6
-30 -1 -42 -2 -43 -33 -42 -30 0 -31 1 -10 9 12 5 23 19 23 30 1 11 3 25 4 30
1 6 3 12 4 15 2 9 15 5 35 -10z m-1265 -32 c1 9 6 17 11 17 6 0 10 -48 11
-122 1 -79 4 -112 9 -93 6 23 8 12 9 -42 0 -40 -3 -73 -7 -73 -12 0 -34 122
-26 144 6 14 4 17 -6 11 -10 -6 -11 0 -6 30 5 27 4 35 -4 30 -9 -6 -10 4 -6
36 5 32 4 40 -3 29 -9 -13 -11 -13 -11 2 0 9 3 24 7 34 6 16 7 16 14 -2 7 -17
8 -17 8 -1z m38 -50 c-2 -16 -4 -5 -4 22 0 28 2 40 4 28 2 -13 2 -35 0 -50z
m217 25 c3 -13 5 -45 5 -73 -1 -27 -3 -41 -6 -30 -2 11 -6 30 -9 43 -2 12 -9
22 -14 22 -12 0 -14 -26 -2 -33 4 -2 2 -2 -5 -1 -6 2 -14 -7 -16 -19 -4 -18
-5 -17 -6 5 -1 30 27 108 39 108 4 0 10 -10 14 -22z m-329 -38 c7 -22 6 -23
-9 -8 -9 9 -16 25 -16 34 0 23 15 7 25 -26z m192 -7 c-3 -10 -5 -2 -5 17 0 19
2 27 5 18 2 -10 2 -26 0 -35z m-1027 7 c0 -5 -2 -10 -4 -10 -3 0 -8 5 -11 10
-3 6 -1 10 4 10 6 0 11 -4 11 -10z m807 -57 c-3 -10 -5 -2 -5 17 0 19 2 27 5
18 2 -10 2 -26 0 -35z m799 15 l19 -23 -25 20 c-14 11 -27 21 -29 22 -2 2 0 3
6 3 5 0 18 -10 29 -22z m-1376 -51 c-11 -13 -58 10 -71 35 -12 22 -11 23 8 6
28 -25 46 -23 38 5 -5 17 -2 15 13 -8 11 -16 16 -34 12 -38z m-290 -12 c0 -35
-28 -75 -51 -75 -7 0 0 9 15 21 19 15 26 30 26 55 0 19 2 34 5 34 3 0 5 -16 5
-35z m-389 -6 c21 -21 20 -38 -6 -88 l-13 -25 -16 31 c-8 17 -24 34 -33 36
-10 3 0 4 21 3 46 -1 56 14 27 43 -12 12 -16 21 -11 21 6 0 19 -9 31 -21z
m1556 -31 c-2 -13 -4 -5 -4 17 -1 22 1 32 4 23 2 -10 2 -28 0 -40z m-857 32
c0 -5 -8 -10 -17 -10 -15 0 -16 2 -3 10 19 12 20 12 20 0z m467 -22 c-3 -7 -5
-2 -5 12 0 14 2 19 5 13 2 -7 2 -19 0 -25z m466 -13 c5 -28 4 -34 -3 -20 -8
19 -14 73 -6 64 2 -2 6 -22 9 -44z m-1283 11 c0 -2 -8 -10 -17 -17 -16 -13
-17 -12 -4 4 13 16 21 21 21 13z m740 -10 c0 -2 -8 -10 -17 -17 -16 -13 -17
-12 -4 4 13 16 21 21 21 13z m507 -18 c-3 -8 -6 -5 -6 6 -1 11 2 17 5 13 3 -3
4 -12 1 -19z m508 -16 c-10 -10 -16 -12 -13 -7 3 6 8 19 13 30 5 14 9 16 12 7
3 -8 -3 -21 -12 -30z m112 32 c-3 -3 -12 -4 -19 -1 -8 3 -5 6 6 6 11 1 17 -2
13 -5z m56 -1 c-7 -2 -19 -2 -25 0 -7 3 -2 5 12 5 14 0 19 -2 13 -5z m-1265
-44 c-8 -5 -88 26 -88 34 0 2 22 -4 49 -12 27 -9 44 -19 39 -22z m499 19 c-3
-8 -6 -5 -6 6 -1 11 2 17 5 13 3 -3 4 -12 1 -19z m-1687 2 c-8 -5 -19 -10 -25
-10 -5 0 -3 5 5 10 8 5 20 10 25 10 6 0 3 -5 -5 -10z m960 1 c0 -5 -11 -11
-25 -13 -14 -3 -25 -3 -25 -1 0 3 34 19 48 22 1 1 2 -3 2 -8z m60 -43 c0 -4
-10 -8 -22 -8 -17 0 -19 3 -10 12 9 9 8 16 -6 32 -12 15 -9 14 11 -3 15 -14
27 -28 27 -33z m1520 7 c0 -3 -15 -4 -32 -4 -18 1 -25 3 -15 6 9 2 14 9 11 15
-4 6 2 5 15 -1 11 -7 21 -14 21 -16z m-793 -32 c-3 -10 -5 -2 -5 17 0 19 2 27
5 18 2 -10 2 -26 0 -35z m92 -3 c0 -9 -4 -8 -9 5 -5 11 -9 27 -9 35 0 9 4 8 9
-5 5 -11 9 -27 9 -35z m-1721 14 c1 -14 -2 -23 -8 -19 -12 7 -14 45 -2 45 4 0
9 -11 10 -26z m787 -14 c12 -19 -12 -10 -31 11 -19 22 -19 22 3 10 12 -6 25
-16 28 -21z"/>
<path d="M1995 2640 c-3 -6 1 -7 9 -4 18 7 21 14 7 14 -6 0 -13 -4 -16 -10z"/>
<path d="M2015 2590 c-3 -6 1 -7 9 -4 18 7 21 14 7 14 -6 0 -13 -4 -16 -10z"/>
<path d="M2155 2590 c4 -7 1 -11 -6 -9 -8 1 -38 1 -66 0 -49 -1 -53 -3 -53
-26 0 -15 8 -29 23 -36 22 -12 22 -12 4 9 -28 31 -13 42 54 42 52 0 59 -2 59
-19 0 -24 -13 -33 -60 -42 l-35 -7 36 -1 c61 -2 104 65 58 90 -16 8 -20 8 -14
-1z"/>
<path d="M1596 2187 c3 -10 9 -15 12 -12 3 3 0 11 -7 18 -10 9 -11 8 -5 -6z"/>
<path d="M1965 2030 c-3 -6 1 -7 9 -4 18 7 21 14 7 14 -6 0 -13 -4 -16 -10z"/>
<path d="M167 2043 c-12 -11 -7 -19 12 -19 11 0 17 5 14 13 -6 14 -16 17 -26
6z"/>
<path d="M2215 1980 c-9 -14 11 -46 45 -70 l30 -21 0 28 c0 52 -54 97 -75 63z"/>
<path d="M1426 1825 c-41 -62 -44 -75 -17 -75 13 0 29 18 50 57 35 63 37 73
17 73 -7 0 -30 -25 -50 -55z"/>
<path d="M1100 1860 c0 -13 91 -112 97 -106 9 9 -10 48 -39 82 -29 33 -58 45
-58 24z"/>
<path d="M1702 1780 c-50 -36 -78 -80 -51 -80 16 0 118 83 118 98 1 20 -24 14
-67 -18z"/>
<path d="M830 1720 c-13 -8 -13 -11 3 -22 10 -8 45 -24 78 -37 56 -21 62 -22
77 -8 14 15 10 19 -49 47 -68 32 -85 35 -109 20z"/>
<path d="M1935 1645 c-16 -14 -49 -32 -72 -41 -44 -17 -54 -31 -29 -40 16 -6
86 22 156 63 39 23 42 27 25 34 -33 13 -49 9 -80 -16z"/>
<path d="M740 1500 c0 -18 7 -20 73 -20 39 0 82 -3 95 -6 16 -5 22 -2 22 9 0
21 -58 37 -132 37 -51 0 -58 -2 -58 -20z"/>
<path d="M1375 1478 c-17 -43 -5 -58 47 -58 44 0 172 -50 297 -116 58 -31 88
-41 95 -34 15 15 3 23 -144 90 -74 34 -139 67 -145 72 -7 7 16 8 70 5 78 -6
138 4 105 17 -8 3 -63 10 -122 15 -68 6 -115 15 -130 25 -35 25 -57 20 -73
-16z"/>
<path d="M1980 1478 c0 -9 10 -18 23 -22 32 -9 100 -7 116 3 21 14 -3 23 -75
29 -53 4 -64 2 -64 -10z"/>
<path d="M870 1274 c-58 -10 -70 -15 -70 -30 0 -17 1 -17 123 2 22 4 36 11 34
18 -4 12 -46 16 -87 10z"/>
<path d="M1924 1241 c28 -31 152 -64 144 -38 -6 17 -66 44 -117 51 -44 7 -45
7 -27 -13z"/>
<path d="M1685 1150 c-9 -15 101 -128 114 -115 7 7 -5 28 -36 65 -46 56 -66
69 -78 50z"/>
<path d="M1472 1078 c-7 -7 -12 -15 -12 -19 0 -11 64 -75 81 -81 38 -14 34 10
-10 59 -37 41 -50 50 -59 41z"/>
<path d="M1207 1233 c-12 -12 -7 -41 8 -47 25 -9 45 4 45 30 0 18 -5 24 -23
24 -13 0 -27 -3 -30 -7z"/>
<path d="M509 1233 c-13 -16 -12 -17 4 -4 9 7 17 15 17 17 0 8 -8 3 -21 -13z"/>
<path d="M2430 1220 c-8 -5 -12 -11 -9 -14 2 -3 11 -1 19 4 8 5 12 11 9 14 -2
3 -11 1 -19 -4z"/>
<path d="M569 1093 l-24 -28 28 24 c25 23 32 31 24 31 -2 0 -14 -12 -28 -27z"/>
<path d="M374 249 c-22 -17 -52 -38 -69 -45 -25 -11 -26 -13 -9 -14 12 0 42
16 68 36 32 25 55 34 74 32 57 -6 31 -68 -37 -89 -46 -14 -60 -25 -96 -74
l-29 -40 40 36 c42 39 93 69 119 69 8 0 15 5 15 11 0 5 4 8 9 4 27 -16 36 60
10 86 -27 27 -50 24 -95 -12z"/>
<path d="M397 223 c-10 -9 -9 -23 1 -23 5 0 9 7 9 15 0 17 -1 18 -10 8z"/>
<path d="M1320 595 c13 -14 26 -25 28 -25 3 0 -5 11 -18 25 -13 14 -26 25 -28
25 -3 0 5 -11 18 -25z"/>
<path d="M1376 517 c3 -10 9 -15 12 -12 3 3 0 11 -7 18 -10 9 -11 8 -5 -6z"/>
<path d="M2350 734 c17 -15 33 -24 36 -21 6 6 -45 47 -58 47 -5 0 5 -12 22
-26z"/>
<path d="M1206 317 c22 -36 9 -86 -26 -104 -16 -8 -19 -13 -9 -13 22 0 48 31
55 66 4 22 0 36 -16 54 l-21 25 17 -28z"/>
<path d="M1006 2991 c-3 -4 4 -17 17 -27 22 -19 22 -19 7 1 -8 12 5 -1 29 -28
42 -46 105 -87 133 -87 7 0 4 6 -7 12 -41 22 -95 86 -88 104 4 12 3 15 -5 10
-7 -4 -12 -1 -12 8 0 12 -10 16 -34 16 -19 0 -37 -4 -40 -9z"/>
<path d="M1863 2993 c9 -2 25 -2 35 0 9 3 1 5 -18 5 -19 0 -27 -2 -17 -5z"/>
<path d="M66 2975 c4 -8 8 -15 10 -15 2 0 4 7 4 15 0 8 -4 15 -10 15 -5 0 -7
-7 -4 -15z"/>
<path d="M1810 2981 c0 -5 6 -13 13 -19 10 -8 13 -6 13 9 0 10 -6 19 -13 19
-7 0 -13 -4 -13 -9z"/>
<path d="M407 2928 c-30 -41 -64 -97 -51 -83 16 16 84 115 79 115 -2 0 -15
-15 -28 -32z"/>
<path d="M1535 2940 c-3 -5 -1 -10 4 -10 6 0 11 5 11 10 0 6 -2 10 -4 10 -3 0
-8 -4 -11 -10z"/>
<path d="M296 2915 c-9 -26 -7 -32 5 -12 6 10 9 21 6 23 -2 3 -7 -2 -11 -11z"/>
<path d="M445 2921 c-3 -5 -1 -12 5 -16 5 -3 10 1 10 9 0 18 -6 21 -15 7z"/>
<path d="M492 2900 c0 -14 2 -19 5 -12 2 6 2 18 0 25 -3 6 -5 1 -5 -13z"/>
<path d="M189 2849 c-24 -20 -24 -20 -1 -9 20 10 22 8 23 -17 l1 -28 8 25 c18
55 8 64 -31 29z"/>
<path d="M482 2840 c0 -19 2 -27 5 -17 2 9 2 25 0 35 -3 9 -5 1 -5 -18z"/>
<path d="M405 2850 c-3 -6 1 -7 9 -4 18 7 21 14 7 14 -6 0 -13 -4 -16 -10z"/>
<path d="M125 2798 c-15 -18 -24 -26 -20 -18 4 10 2 9 -8 -2 -8 -10 -17 -15
-20 -11 -4 3 -7 1 -7 -6 0 -7 -4 -9 -10 -6 -5 3 -10 2 -10 -4 0 -6 -11 -13
-25 -17 -19 -5 -25 -13 -25 -34 0 -16 6 -30 13 -33 9 -4 9 -7 0 -18 -7 -7 -13
-33 -13 -57 l0 -45 36 6 c41 7 84 32 84 49 0 6 -10 3 -22 -8 l-23 -19 19 22
c10 13 23 20 27 17 12 -7 51 85 45 103 -3 8 -1 11 4 8 13 -8 13 16 0 49 -5 15
-6 26 0 26 5 0 11 -10 13 -22 4 -19 5 -18 6 6 1 26 -1 28 -26 21 -23 -5 -25
-4 -14 9 8 9 11 16 8 16 -3 0 -18 -15 -32 -32z m14 -70 c0 -16 -2 -18 -6 -8
-3 8 -11 18 -17 22 -7 5 -4 8 7 8 11 0 17 -7 16 -22z m-79 -52 c0 -8 -4 -17
-8 -20 -4 -2 -8 4 -8 15 0 10 4 19 8 19 4 0 8 -6 8 -14z"/>
<path d="M325 2799 c-9 -17 -15 -33 -13 -35 3 -2 12 12 21 31 21 43 13 47 -8
4z"/>
<path d="M367 2762 c-27 -57 -32 -79 -33 -149 -1 -63 3 -86 14 -95 8 -7 17
-12 19 -10 2 1 25 -9 53 -23 66 -34 78 -32 15 3 -60 33 -95 81 -95 132 0 45
22 122 46 157 17 27 17 27 33 6 17 -20 17 -20 17 11 0 24 -5 32 -19 33 -14 2
-27 -16 -50 -65z"/>
<path d="M261 2804 c0 -11 3 -14 6 -6 3 7 2 16 -1 19 -3 4 -6 -2 -5 -13z"/>
<path d="M491 2784 c0 -11 3 -14 6 -6 3 7 2 16 -1 19 -3 4 -6 -2 -5 -13z"/>
<path d="M201 2774 c0 -11 3 -14 6 -6 3 7 2 16 -1 19 -3 4 -6 -2 -5 -13z"/>
<path d="M251 2764 c0 -11 3 -14 6 -6 3 7 2 16 -1 19 -3 4 -6 -2 -5 -13z"/>
<path d="M655 2770 c-13 -21 7 -68 43 -102 32 -31 142 -96 142 -84 0 2 -24 19
-52 37 -60 38 -98 75 -98 95 0 19 24 17 94 -6 57 -19 95 -26 84 -15 -3 3 -14
7 -25 9 -11 3 -52 20 -91 40 -77 39 -87 42 -97 26z"/>
<path d="M440 2741 c0 -6 4 -13 10 -16 6 -3 7 1 4 9 -7 18 -14 21 -14 7z"/>
<path d="M241 2714 c0 -11 3 -14 6 -6 3 7 2 16 -1 19 -3 4 -6 -2 -5 -13z"/>
<path d="M2962 2719 c-18 -3 -36 -10 -40 -14 -8 -9 67 1 76 10 10 10 -3 12
-36 4z"/>
<path d="M181 2704 c0 -11 3 -14 6 -6 3 7 2 16 -1 19 -3 4 -6 -2 -5 -13z"/>
<path d="M760 2679 c0 -5 5 -7 10 -4 6 3 10 8 10 11 0 2 -4 4 -10 4 -5 0 -10
-5 -10 -11z"/>
<path d="M151 2626 c-28 -68 -41 -79 -105 -87 l-51 -6 62 -2 c71 -1 83 9 109
95 19 65 12 65 -15 0z"/>
<path d="M650 2655 c13 -14 26 -25 28 -25 3 0 -5 11 -18 25 -13 14 -26 25 -28
25 -3 0 5 -11 18 -25z"/>
<path d="M2940 2664 c-49 -21 -70 -43 -70 -73 1 -25 1 -25 15 7 10 24 28 39
67 57 57 27 46 34 -12 9z"/>
<path d="M232 2650 c0 -14 2 -19 5 -12 2 6 2 18 0 25 -3 6 -5 1 -5 -13z"/>
<path d="M1755 2630 c-3 -6 1 -7 9 -4 18 7 21 14 7 14 -6 0 -13 -4 -16 -10z"/>
<path d="M2959 2623 c-32 -20 -59 -63 -59 -95 0 -12 9 -38 20 -55 31 -52 15
-39 -41 32 -57 73 -82 84 -140 65 -46 -16 -119 -90 -119 -121 0 -17 6 -11 23
21 26 50 75 80 129 80 33 0 45 -7 90 -56 45 -47 111 -94 133 -94 3 0 -10 16
-30 35 -29 30 -35 43 -35 79 0 26 6 48 14 55 12 10 18 7 31 -18 8 -17 18 -31
20 -31 3 0 5 27 5 60 0 33 -3 60 -7 60 -5 0 -20 -8 -34 -17z"/>
<path d="M261 2614 c0 -11 3 -14 6 -6 3 7 2 16 -1 19 -3 4 -6 -2 -5 -13z"/>
<path d="M2639 2623 c-1 -5 0 -12 1 -18 1 -5 -2 -7 -5 -3 -12 12 -41 -9 -76
-54 -18 -24 -24 -35 -13 -25 11 9 25 14 30 10 5 -5 6 -4 2 1 -4 5 -3 15 3 23
22 26 27 13 13 -34 -16 -53 -18 -92 -5 -112 6 -8 7 3 4 30 -4 37 1 56 31 113
20 38 36 70 36 72 0 8 -20 4 -21 -3z"/>
<path d="M2345 2568 c-22 -24 -28 -33 -14 -20 33 29 42 28 35 -5 -5 -25 -4
-24 10 5 8 18 12 37 9 42 -3 4 1 11 7 13 7 3 8 6 3 6 -6 1 -29 -18 -50 -41z"/>
<path d="M230 2571 c0 -11 4 -22 9 -25 4 -3 6 6 3 19 -5 30 -12 33 -12 6z"/>
<path d="M1712 2570 c-7 -11 -12 -30 -12 -42 0 -18 -2 -20 -10 -8 -13 21 -22
7 -12 -21 5 -13 9 -46 10 -74 0 -45 -1 -47 -8 -17 -9 40 -40 76 -53 63 -5 -5
-1 -17 12 -30 25 -25 26 -34 7 -50 -16 -13 -66 1 -66 19 0 6 -5 8 -12 4 -8 -5
-4 -13 11 -26 25 -19 21 -24 -8 -9 -23 13 -48 -1 -29 -16 23 -18 80 -33 124
-33 76 0 93 38 75 168 -7 48 -13 88 -15 89 -1 1 -7 -7 -14 -17z m-5 -92 c-3
-8 -6 -5 -6 6 -1 11 2 17 5 13 3 -3 4 -12 1 -19z"/>
<path d="M720 2575 c0 -2 27 -18 60 -35 33 -17 60 -28 60 -25 0 2 -27 18 -60
35 -33 17 -60 28 -60 25z"/>
<path d="M133 2523 c-16 -17 -18 -23 -8 -23 8 0 15 -9 15 -20 0 -19 1 -19 20
-3 11 9 16 20 11 23 -5 3 -11 14 -12 25 -4 19 -5 19 -26 -2z"/>
<path d="M2300 2499 c-78 -69 -114 -83 -210 -83 -97 0 -151 19 -224 79 -24 19
-51 35 -61 35 -16 0 -17 -6 -12 -52 4 -29 14 -77 22 -106 22 -73 53 -87 186
-79 176 9 272 54 313 146 11 22 22 39 25 37 3 -2 6 11 6 30 0 19 0 34 0 34 0
0 -20 -19 -45 -41z m-395 -59 c31 -16 64 -30 73 -30 8 0 13 -3 9 -6 -3 -4 -29
2 -56 12 -56 20 -66 16 -57 -18 11 -43 53 -62 151 -69 l90 -7 -102 2 c-98 2
-104 3 -133 31 -29 28 -55 89 -44 107 7 11 5 12 69 -22z m365 -17 c-1 -22 -78
-83 -105 -83 -5 0 4 9 21 19 53 32 52 43 -2 37 l-49 -6 48 13 c26 8 50 17 54
20 9 9 33 9 33 0z m-237 -30 c-7 -2 -19 -2 -25 0 -7 3 -2 5 12 5 14 0 19 -2
13 -5z m-73 -23 c0 -5 -2 -10 -4 -10 -3 0 -8 5 -11 10 -3 6 -1 10 4 10 6 0 11
-4 11 -10z m187 -36 c-3 -3 -12 -4 -19 -1 -8 3 -5 6 6 6 11 1 17 -2 13 -5z"/>
<path d="M270 2521 c0 -10 39 -36 45 -29 2 2 -8 11 -21 21 -13 10 -24 13 -24
8z"/>
<path d="M2720 2524 c35 -7 98 -9 94 -2 -3 5 -29 7 -57 7 -29 -1 -45 -3 -37
-5z"/>
<path d="M2944 2515 c-9 -21 -2 -26 13 -10 8 9 9 16 3 20 -6 3 -13 -1 -16 -10z"/>
<path d="M1656 2502 c-4 -7 0 -22 8 -34 17 -24 21 -9 7 26 -5 14 -10 16 -15 8z"/>
<path d="M2960 2488 c1 -15 24 -48 34 -48 13 0 5 48 -10 54 -22 8 -24 8 -24
-6z"/>
<path d="M163 2458 c-23 -30 -25 -42 -4 -23 12 10 43 22 69 26 l47 6 -51 2
c-31 0 -55 -4 -61 -11z"/>
<path d="M2461 2454 c0 -11 3 -14 6 -6 3 7 2 16 -1 19 -3 4 -6 -2 -5 -13z"/>
<path d="M308 2453 c6 -2 18 -2 25 0 6 3 1 5 -13 5 -14 0 -19 -2 -12 -5z"/>
<path d="M368 2443 c7 -3 16 -2 19 1 4 3 -2 6 -13 5 -11 0 -14 -3 -6 -6z"/>
<path d="M1600 2420 c0 -5 7 -10 16 -10 8 0 12 5 9 10 -3 6 -10 10 -16 10 -5
0 -9 -4 -9 -10z"/>
<path d="M2620 2391 c0 -7 -5 -9 -12 -5 -7 5 -8 3 -3 -5 5 -9 10 -10 18 -2 6
6 8 14 4 18 -4 3 -7 1 -7 -6z"/>
<path d="M2540 2332 c0 -22 27 -62 43 -62 8 0 8 3 -1 12 -18 18 -15 38 6 32
11 -4 8 1 -8 15 -31 25 -40 26 -40 3z"/>
<path d="M251 2316 c-50 -18 -108 -71 -141 -129 -16 -29 -30 -56 -29 -62 0 -5
10 9 22 32 49 93 132 152 214 153 78 0 91 -17 48 -68 -46 -54 -65 -111 -63
-187 l1 -70 6 77 c9 99 41 149 124 194 45 24 55 33 45 41 -38 31 -164 42 -227
19z"/>
<path d="M576 2271 c-3 -5 4 -11 16 -14 30 -8 35 -1 9 12 -11 6 -22 7 -25 2z"/>
<path d="M2870 2253 c0 -15 5 -35 10 -43 8 -13 10 -12 10 4 0 15 3 16 15 6 13
-11 13 -14 -2 -26 -17 -13 -17 -15 1 -29 11 -8 17 -15 13 -15 -7 0 1 -10 57
-75 25 -30 25 -30 26 -6 0 13 -12 40 -27 60 -16 20 -29 39 -29 44 -1 4 -2 9
-3 12 0 3 -10 1 -21 -5 -11 -6 -20 -7 -20 -1 0 5 7 11 15 15 12 4 12 11 -6 41
-28 47 -39 52 -39 18z"/>
<path d="M1375 2231 c-3 -5 -1 -12 5 -16 5 -3 10 -3 10 1 0 4 10 -1 23 -12 20
-17 20 -16 -2 9 -28 30 -28 31 -36 18z"/>
<path d="M1363 2129 c9 -6 15 -14 12 -19 -3 -5 0 -12 6 -16 8 -4 9 -3 5 4 -9
15 -1 15 25 2 10 -6 19 -9 19 -6 0 5 -69 46 -78 46 -4 0 1 -5 11 -11z"/>
<path d="M2195 2050 c-3 -6 1 -7 9 -4 18 7 21 14 7 14 -6 0 -13 -4 -16 -10z"/>
<path d="M2295 2030 c10 -11 20 -20 23 -20 3 0 -3 9 -13 20 -10 11 -20 20 -23
20 -3 0 3 -9 13 -20z"/>
<path d="M2445 2030 c-3 -6 1 -7 9 -4 18 7 21 14 7 14 -6 0 -13 -4 -16 -10z"/>
<path d="M2457 2004 c-15 -16 -7 -82 15 -109 42 -54 143 -81 203 -53 36 16 31
28 -12 28 -67 0 -133 43 -183 119 -8 12 -18 19 -23 15z m65 -92 c10 -8 15 -19
11 -25 -3 -5 -2 -7 4 -4 5 3 32 -2 58 -12 41 -15 45 -20 28 -25 -28 -9 -99 21
-123 52 -35 44 -22 52 22 14z"/>
<path d="M320 1944 c0 -6 7 -19 16 -30 14 -18 14 -18 3 6 -14 31 -19 36 -19
24z"/>
<path d="M330 1876 c0 -2 8 -10 18 -17 15 -13 16 -12 3 4 -13 16 -21 21 -21
13z"/>
<path d="M21 1794 c13 -17 50 -62 82 -99 84 -101 79 -110 -30 -52 -84 44 -85
31 -1 -18 75 -44 116 -51 103 -17 -4 12 -3 13 10 2 23 -19 19 -43 -6 -35 -14
5 -19 3 -15 -3 8 -13 75 -36 83 -29 3 3 -43 59 -102 124 -127 138 -158 171
-124 127z"/>
<path d="M0 1748 c0 -16 5 -28 10 -28 13 0 13 20 0 40 -8 12 -10 9 -10 -12z"/>
<path d="M2891 1728 c-7 -11 -8 -17 -2 -13 6 3 11 1 11 -6 0 -9 3 -9 14 0 11
10 16 9 24 -5 8 -15 9 -15 15 0 4 10 3 15 -3 11 -6 -3 -10 -2 -10 4 0 6 -8 15
-18 20 -14 7 -21 5 -31 -11z"/>
<path d="M31 1714 c0 -11 3 -14 6 -6 3 7 2 16 -1 19 -3 4 -6 -2 -5 -13z"/>
<path d="M63 1685 c-9 -10 -6 -15 14 -24 27 -13 39 -9 28 8 -3 6 -11 8 -17 5
-6 -4 -8 -2 -4 4 10 16 -7 22 -21 7z"/>
<path d="M2978 1644 c2 -13 8 -24 13 -24 12 0 6 39 -7 44 -7 3 -9 -5 -6 -20z"/>
<path d="M65 1558 c16 -13 71 -58 122 -100 51 -42 102 -79 113 -83 11 -4 18
-11 15 -16 -4 -5 8 -7 27 -4 20 3 26 2 16 -2 -9 -5 25 -8 77 -8 51 -1 91 3 88
8 -3 4 -5 25 -5 45 0 35 -11 52 -33 52 -5 0 -3 -5 5 -11 11 -8 6 -9 -20 -5
-21 4 -30 3 -22 -3 18 -11 -32 -21 -102 -21 -57 0 -79 11 -191 95 -38 28 -81
57 -95 64 -21 10 -20 9 5 -11z"/>
<path d="M2843 1545 c0 -22 2 -30 4 -17 2 12 2 30 0 40 -3 9 -5 -1 -4 -23z"/>
<path d="M2670 1553 c0 -13 29 -38 35 -31 3 3 -4 13 -15 23 -11 10 -20 13 -20
8z"/>
<path d="M2900 1549 c0 -5 5 -7 10 -4 6 3 10 8 10 11 0 2 -4 4 -10 4 -5 0 -10
-5 -10 -11z"/>
<path d="M2931 1532 c0 -12 2 -13 6 -3 4 10 7 10 13 1 5 -9 9 -8 13 2 3 9 -2
14 -14 15 -12 1 -19 -4 -18 -15z"/>
<path d="M3 1463 c0 -16 1 -20 4 -10 6 22 23 12 23 -14 0 -11 -7 -19 -16 -19
-28 0 -8 -25 22 -27 16 -1 23 0 16 3 -9 4 -10 10 -3 18 7 9 4 22 -12 44 -27
39 -32 40 -34 5z"/>
<path d="M2785 1480 c-4 -7 5 -10 25 -8 41 3 47 13 10 16 -16 1 -32 -2 -35 -8z"/>
<path d="M2655 1457 c-13 -10 -15 -16 -6 -21 6 -4 18 -2 26 4 12 10 15 9 15
-3 0 -9 -4 -19 -10 -22 -5 -3 -10 -11 -10 -16 0 -6 12 4 27 21 21 26 24 33 12
41 -19 12 -32 11 -54 -4z"/>
<path d="M140 1422 c0 -6 5 -14 11 -18 17 -10 49 -86 49 -118 0 -16 -3 -26 -7
-23 -3 4 -14 -6 -24 -23 -10 -16 -36 -41 -59 -56 -52 -34 -45 -42 12 -14 101
51 118 95 73 187 -26 51 -55 86 -55 65z"/>
<path d="M398 1423 c7 -3 16 -2 19 1 4 3 -2 6 -13 5 -11 0 -14 -3 -6 -6z"/>
<path d="M2705 1410 c-3 -5 -1 -10 4 -10 6 0 11 5 11 10 0 6 -2 10 -4 10 -3 0
-8 -4 -11 -10z"/>
<path d="M2860 1379 c-7 -11 -9 -23 -6 -26 3 -3 8 2 12 11 8 20 24 21 24 1 0
-8 5 -15 10 -15 7 0 7 -6 0 -20 -7 -14 -7 -20 0 -20 5 0 10 -5 10 -11 0 -5 -4
-7 -10 -4 -5 3 -10 2 -10 -4 0 -5 5 -13 10 -16 6 -3 10 -1 10 6 0 6 8 9 19 6
10 -2 25 0 32 5 11 7 11 8 -1 7 -20 -3 -50 11 -50 22 0 5 10 9 23 10 12 0 16
3 10 6 -7 2 -13 11 -13 19 0 9 -4 12 -10 9 -5 -3 -15 3 -22 15 -16 25 -24 25
-38 -1z"/>
<path d="M2946 1361 c-3 -5 4 -12 17 -16 13 -4 17 -8 10 -12 -18 -7 -16 -23 1
-23 22 0 28 17 14 40 -13 21 -33 26 -42 11z"/>
<path d="M2733 1333 c-7 -2 -13 -9 -13 -15 0 -7 5 -6 14 1 10 8 16 8 25 -3 7
-9 8 -17 2 -20 -13 -9 -61 11 -61 25 0 7 -3 10 -6 6 -3 -3 0 -15 8 -26 8 -12
18 -18 21 -15 4 4 9 -1 13 -10 9 -23 20 -20 29 7 4 13 8 17 12 10 7 -18 21
-16 32 6 9 16 7 18 -15 15 -15 -1 -28 4 -31 12 -5 15 -10 16 -30 7z"/>
<path d="M2831 1323 c-1 -12 -5 -24 -10 -27 -5 -3 -11 -16 -14 -28 l-6 -23 16
23 c8 12 21 22 27 22 6 0 5 -4 -3 -9 -16 -10 -6 -31 15 -31 17 0 19 -16 2 -26
-6 -4 -8 -3 -5 3 9 15 -24 26 -36 14 -7 -7 -5 -12 6 -17 9 -3 17 -10 17 -16 0
-5 -4 -7 -9 -4 -5 3 -11 0 -14 -7 -4 -10 3 -12 24 -9 16 2 29 9 29 15 0 28 39
-30 42 -62 2 -29 7 -35 22 -33 18 3 18 2 2 -13 -9 -9 -21 -25 -26 -36 -9 -15
-6 -20 15 -25 14 -3 23 -10 20 -14 -2 -4 3 -14 13 -22 27 -24 42 -30 42 -19 0
6 -6 11 -14 11 -8 0 -17 7 -20 16 -8 21 -8 24 4 24 6 0 10 -7 10 -16 0 -8 5
-12 10 -9 8 5 8 11 0 20 -8 10 -8 15 0 20 8 5 6 13 -6 26 -19 21 -29 79 -14
79 6 0 10 -9 10 -20 0 -11 4 -20 10 -20 11 0 3 24 -18 57 -8 13 -18 20 -23 17
-5 -3 -9 0 -9 5 0 6 7 11 15 11 9 0 18 7 22 16 5 13 7 13 14 2 6 -9 9 -4 9 15
0 15 -3 27 -6 27 -12 0 -33 -28 -26 -35 4 -5 -1 -5 -10 -2 -17 6 -19 4 -22
-35 -1 -7 5 -12 12 -10 6 1 12 -2 12 -7 0 -6 -9 -9 -21 -8 -18 1 -20 6 -16 38
6 47 -5 68 -27 50 -16 -14 -20 -9 -16 22 1 10 -4 16 -12 15 -8 -2 -12 5 -10
21 2 13 -1 21 -6 17 -6 -3 -13 0 -15 6 -3 7 -6 3 -6 -9z m34 -53 c3 -5 -1 -10
-10 -10 -9 0 -13 5 -10 10 3 6 8 10 10 10 2 0 7 -4 10 -10z m89 -135 c4 -10
-1 -15 -14 -15 -20 0 -26 11 -13 23 10 11 20 8 27 -8z m29 -85 c-5 -5 -53 -9
-53 -3 0 2 5 12 12 23 12 18 13 18 29 2 9 -9 15 -19 12 -22z"/>
<path d="M55 1321 c17 -8 16 -10 -12 -10 -40 -1 -53 -19 -16 -23 38 -4 42 -43
8 -83 l-25 -30 21 37 c22 41 19 58 -12 58 -18 0 -20 -6 -18 -55 l2 -55 25 22
c53 50 70 140 26 145 -18 3 -18 2 1 -6z"/>
<path d="M2580 1319 c0 -6 6 -9 13 -6 6 2 21 -3 32 -12 20 -16 20 -16 1 7 -20
23 -46 30 -46 11z"/>
<path d="M2978 1273 c7 -3 16 -2 19 1 4 3 -2 6 -13 5 -11 0 -14 -3 -6 -6z"/>
<path d="M250 1253 c0 -9 -8 -25 -17 -36 -17 -19 -17 -20 5 -8 14 7 22 21 22
36 0 14 -2 25 -5 25 -3 0 -5 -8 -5 -17z"/>
<path d="M2758 1225 c-3 -13 -3 -27 0 -30 9 -9 42 -5 42 5 0 5 -7 7 -17 3 -13
-5 -15 -2 -11 15 4 12 3 24 -2 27 -4 3 -10 -6 -12 -20z"/>
<path d="M348 1218 c-21 -7 -28 -16 -28 -36 l1 -27 15 28 c15 29 58 38 67 15
4 -8 6 -7 6 3 1 13 -22 33 -32 28 -1 0 -14 -5 -29 -11z"/>
<path d="M2565 1190 c-28 -7 -28 -8 -5 -9 14 0 32 4 40 9 17 11 8 11 -35 0z"/>
<path d="M2509 1153 c-12 -16 -12 -17 1 -7 8 6 22 14 30 17 13 5 12 6 -1 6 -9
1 -23 -7 -30 -16z"/>
<path d="M2686 1138 c1 -13 3 -24 3 -26 1 -1 7 3 14 10 11 10 12 15 1 25 -18
18 -21 16 -18 -9z"/>
<path d="M370 1101 c0 -17 5 -31 10 -31 6 0 10 11 10 24 0 14 -4 28 -10 31 -6
4 -10 -7 -10 -24z"/>
<path d="M2675 1060 c-3 -5 -1 -10 4 -10 6 0 11 5 11 10 0 6 -2 10 -4 10 -3 0
-8 -4 -11 -10z"/>
<path d="M19 1040 c-15 -9 -25 -81 -14 -100 4 -6 24 12 46 40 22 28 37 55 34
60 -8 12 -45 12 -66 0z m41 -16 c0 -9 -41 -74 -46 -74 -3 0 2 13 11 30 14 27
14 30 -3 39 -14 9 -13 10 11 11 15 0 27 -3 27 -6z"/>
<path d="M2637 964 c-16 -16 -7 -44 14 -44 15 0 20 5 17 22 -3 22 -19 33 -31
22z"/>
<path d="M2966 909 c-15 -17 -24 -34 -20 -37 4 -4 9 -1 11 6 4 10 8 10 21 0
15 -11 15 -11 4 4 -8 10 -9 19 -3 22 5 3 12 0 14 -6 3 -7 6 -1 6 15 1 15 -1
27 -2 27 -2 0 -16 -14 -31 -31z"/>
<path d="M1 904 c0 -11 3 -14 6 -6 3 7 2 16 -1 19 -3 4 -6 -2 -5 -13z"/>
<path d="M85 904 c-22 -22 -15 -45 17 -64 26 -14 29 -13 50 7 19 19 20 26 10
48 -14 29 -52 34 -77 9z"/>
<path d="M2728 913 c6 -2 18 -2 25 0 6 3 1 5 -13 5 -14 0 -19 -2 -12 -5z"/>
<path d="M2802 913 c-19 -7 -34 -40 -17 -40 8 0 13 5 12 11 -1 6 8 10 20 8 12
-2 24 1 27 6 7 11 -23 21 -42 15z"/>
<path d="M2690 881 c13 -9 12 -11 -4 -11 -15 0 -16 -3 -6 -15 7 -8 16 -13 20
-10 13 8 5 39 -11 43 -11 3 -11 1 1 -7z"/>
<path d="M2937 839 c-5 -20 17 -39 30 -25 4 3 -2 6 -12 6 -17 0 -17 1 0 20 15
17 16 20 3 20 -9 0 -18 -9 -21 -21z"/>
<path d="M1 803 c-1 -41 2 -53 14 -53 18 0 18 3 1 60 l-15 45 0 -52z"/>
<path d="M2979 827 c5 -5 7 -16 4 -25 -4 -10 -2 -13 5 -8 17 10 15 43 -3 43
-10 0 -12 -4 -6 -10z"/>
<path d="M372 799 c-8 -12 -9 -26 -4 -35 7 -13 10 -9 16 16 8 40 4 45 -12 19z"/>
<path d="M2811 726 c-20 -21 -20 -24 -5 -22 9 1 21 12 25 24 11 28 8 28 -20
-2z"/>
<path d="M2919 663 c-12 -16 -12 -17 2 -6 9 7 20 9 24 5 5 -4 5 -1 1 6 -9 16
-11 15 -27 -5z"/>
<path d="M2880 649 c0 -5 5 -7 10 -4 6 3 10 8 10 11 0 2 -4 4 -10 4 -5 0 -10
-5 -10 -11z"/>
<path d="M2931 492 c-36 -17 -54 -45 -48 -70 4 -13 5 -12 6 4 0 12 8 28 17 35
13 11 17 10 25 -4 15 -25 44 -21 58 9 18 41 -5 52 -58 26z m23 -17 c-4 -8 -8
-15 -10 -15 -2 0 -4 7 -4 15 0 8 4 15 10 15 5 0 7 -7 4 -15z"/>
<path d="M2740 487 c-45 -8 -51 -11 -30 -17 17 -4 21 -8 12 -14 -7 -4 -19 -21
-28 -37 -14 -28 -14 -33 1 -55 10 -16 25 -24 44 -24 34 0 44 24 34 83 -5 32
-3 37 13 37 11 0 36 -19 57 -42 37 -41 38 -41 11 -5 -14 21 -27 47 -28 60 -1
26 -14 28 -86 14z m75 -7 c3 -6 -1 -7 -9 -4 -18 7 -21 14 -7 14 6 0 13 -4 16
-10z m-61 -90 c-1 -25 -5 -34 -15 -31 -8 2 -19 4 -26 4 -7 0 -8 8 -3 21 4 12
15 20 24 20 9 -1 16 3 16 8 0 6 -11 8 -25 6 -13 -3 -22 -1 -19 4 3 5 16 8 27
6 18 -2 22 -9 21 -38z"/>
<path d="M280 455 c-7 -9 -11 -17 -9 -20 3 -2 10 5 17 15 14 24 10 26 -8 5z"/>
<path d="M2890 396 c0 -2 8 -10 18 -17 15 -13 16 -12 3 4 -13 16 -21 21 -21
13z"/>
<path d="M2958 393 c7 -3 16 -2 19 1 4 3 -2 6 -13 5 -11 0 -14 -3 -6 -6z"/>
<path d="M2478 323 c-46 -53 -49 -97 -8 -118 42 -22 47 -19 16 10 -29 27 -33
52 -12 80 12 17 16 18 32 5 16 -14 16 -13 4 10 -7 14 -14 26 -15 28 -1 1 -9
-6 -17 -15z"/>
<path d="M130 300 c-8 -5 -12 -12 -9 -15 4 -3 12 1 19 10 14 17 11 19 -10 5z"/>
<path d="M2481 287 c-19 -19 -12 -44 20 -71 17 -14 27 -26 22 -26 -11 0 20
-20 32 -20 6 0 3 5 -5 10 -10 7 -11 10 -2 10 7 0 15 -7 18 -15 4 -8 10 -13 14
-10 16 10 102 -49 153 -106 61 -66 96 -81 47 -19 -18 23 -31 43 -28 45 2 2 28
-16 58 -40 30 -25 59 -45 64 -45 18 0 -128 128 -181 159 -29 17 -78 45 -107
63 -30 17 -53 35 -51 39 3 4 -6 14 -19 22 -17 12 -26 13 -35 4z m93 -83 c4
-11 2 -12 -14 -4 -27 14 -34 29 -11 23 11 -3 22 -11 25 -19z"/>
<path d="M40 256 c-19 -7 -36 -20 -38 -29 -2 -10 -1 -17 2 -17 11 0 76 45 76
53 0 4 -1 7 -2 6 -2 0 -19 -6 -38 -13z"/>
<path d="M2386 218 c7 -11 34 -10 34 1 0 6 -9 9 -19 8 -11 0 -17 -5 -15 -9z"/>
<path d="M2098 200 c6 -8 12 -29 12 -47 0 -41 32 -77 61 -68 11 4 26 0 35 -10
20 -20 32 -11 14 10 -7 8 -27 15 -44 15 -40 0 -56 16 -56 56 0 18 -7 37 -17
45 -15 11 -16 11 -5 -1z"/>
<path d="M2780 194 c0 -8 5 -12 10 -9 6 4 8 11 5 16 -9 14 -15 11 -15 -7z"/>
<path d="M2991 174 c0 -11 3 -14 6 -6 3 7 2 16 -1 19 -3 4 -6 -2 -5 -13z"/>
<path d="M2012 173 c-48 -19 -58 -173 -11 -173 14 0 19 7 19 25 0 32 23 32 40
1 11 -22 19 -24 76 -24 35 0 64 2 64 4 0 3 -19 13 -43 23 -48 21 -70 48 -87
109 -11 41 -24 49 -58 35z m32 -29 c9 -8 16 -20 16 -27 0 -6 -6 -2 -14 9 -13
16 -18 17 -35 6 -12 -7 -21 -10 -21 -8 0 5 30 36 35 36 2 0 11 -7 19 -16z m66
-109 c13 -14 21 -25 18 -25 -2 0 -15 11 -28 25 -13 14 -21 25 -18 25 2 0 15
-11 28 -25z"/>
<path d="M2170 170 c0 -5 9 -14 20 -20 11 -6 20 -9 20 -8 0 2 -9 11 -20 21
-11 9 -20 13 -20 7z"/>
<path d="M2830 133 c0 -13 55 -96 79 -117 13 -11 31 -16 56 -14 l36 3 -62 45
c-34 25 -66 44 -71 42 -5 -1 -7 2 -4 6 3 5 -3 17 -14 27 -11 10 -20 14 -20 8z"/>
<path d="M1690 50 c0 -5 5 -10 11 -10 5 0 7 5 4 10 -3 6 -8 10 -11 10 -2 0 -4
-4 -4 -10z"/>
<path d="M2174 50 c16 -5 33 -15 37 -22 7 -10 9 -10 9 -1 0 15 -32 33 -57 32
-10 0 -6 -4 11 -9z"/>
<path d="M2231 34 c0 -11 3 -14 6 -6 3 7 2 16 -1 19 -3 4 -6 -2 -5 -13z"/>
<path d="M313 17 c-21 -11 -18 -13 32 -13 34 -1 55 3 55 10 0 6 5 4 11 -4 9
-13 10 -13 6 0 -5 19 -74 24 -104 7z"/>
<path d="M2030 15 c0 -9 6 -12 15 -9 8 4 12 10 9 15 -8 14 -24 10 -24 -6z"/>
</g>
</svg>
